<svg width="204" height="85" viewBox="0 0 204 85" fill="none" xmlns="http://www.w3.org/2000/svg">
<g opacity="0.32">
<circle cx="202" cy="2" r="2" transform="rotate(90 202 2)" fill="white"/>
<circle cx="202" cy="18" r="2" transform="rotate(90 202 18)" fill="white"/>
<circle cx="202" cy="34" r="2" transform="rotate(90 202 34)" fill="white"/>
<circle cx="202" cy="50" r="2" transform="rotate(90 202 50)" fill="white"/>
<circle cx="202" cy="66" r="2" transform="rotate(90 202 66)" fill="white"/>
<circle cx="202" cy="82" r="2" transform="rotate(90 202 82)" fill="white"/>
<circle cx="186" cy="2" r="2" transform="rotate(90 186 2)" fill="white"/>
<circle cx="186" cy="18" r="2" transform="rotate(90 186 18)" fill="white"/>
<circle cx="186" cy="34" r="2" transform="rotate(90 186 34)" fill="white"/>
<circle cx="186" cy="50" r="2" transform="rotate(90 186 50)" fill="white"/>
<circle cx="186" cy="66" r="2" transform="rotate(90 186 66)" fill="white"/>
<circle cx="186" cy="82" r="2" transform="rotate(90 186 82)" fill="white"/>
<circle cx="170" cy="2" r="2" transform="rotate(90 170 2)" fill="white"/>
<circle cx="170" cy="18" r="2" transform="rotate(90 170 18)" fill="white"/>
<circle cx="170" cy="34" r="2" transform="rotate(90 170 34)" fill="white"/>
<circle cx="170" cy="50" r="2" transform="rotate(90 170 50)" fill="white"/>
<circle cx="170" cy="66" r="2" transform="rotate(90 170 66)" fill="white"/>
<circle cx="170" cy="82" r="2" transform="rotate(90 170 82)" fill="white"/>
<circle cx="154" cy="2" r="2" transform="rotate(90 154 2)" fill="white"/>
<circle cx="154" cy="18" r="2" transform="rotate(90 154 18)" fill="white"/>
<circle cx="154" cy="34" r="2" transform="rotate(90 154 34)" fill="white"/>
<circle cx="154" cy="50" r="2" transform="rotate(90 154 50)" fill="white"/>
<circle cx="154" cy="66" r="2" transform="rotate(90 154 66)" fill="white"/>
<circle cx="154" cy="82" r="2" transform="rotate(90 154 82)" fill="white"/>
<circle cx="138" cy="2" r="2" transform="rotate(90 138 2)" fill="white"/>
<circle cx="138" cy="18" r="2" transform="rotate(90 138 18)" fill="white"/>
<circle cx="138" cy="34" r="2" transform="rotate(90 138 34)" fill="white"/>
<circle cx="138" cy="50" r="2" transform="rotate(90 138 50)" fill="white"/>
<circle cx="138" cy="66" r="2" transform="rotate(90 138 66)" fill="white"/>
<circle cx="138" cy="82" r="2" transform="rotate(90 138 82)" fill="white"/>
<circle cx="122" cy="2" r="2" transform="rotate(90 122 2)" fill="white"/>
<circle cx="122" cy="18" r="2" transform="rotate(90 122 18)" fill="white"/>
<circle cx="122" cy="34" r="2" transform="rotate(90 122 34)" fill="white"/>
<circle cx="122" cy="50" r="2" transform="rotate(90 122 50)" fill="white"/>
<circle cx="122" cy="66" r="2" transform="rotate(90 122 66)" fill="white"/>
<circle cx="122" cy="82" r="2" transform="rotate(90 122 82)" fill="white"/>
<circle cx="106" cy="2" r="2" transform="rotate(90 106 2)" fill="white"/>
<circle cx="106" cy="18" r="2" transform="rotate(90 106 18)" fill="white"/>
<circle cx="106" cy="34" r="2" transform="rotate(90 106 34)" fill="white"/>
<circle cx="106" cy="50" r="2" transform="rotate(90 106 50)" fill="white"/>
<circle cx="106" cy="66" r="2" transform="rotate(90 106 66)" fill="white"/>
<circle cx="106" cy="82" r="2" transform="rotate(90 106 82)" fill="white"/>
<circle cx="90" cy="2" r="2" transform="rotate(90 90 2)" fill="white"/>
<circle cx="90" cy="18" r="2" transform="rotate(90 90 18)" fill="white"/>
<circle cx="90" cy="34" r="2" transform="rotate(90 90 34)" fill="white"/>
<circle cx="90" cy="50" r="2" transform="rotate(90 90 50)" fill="white"/>
<circle cx="90" cy="66" r="2" transform="rotate(90 90 66)" fill="white"/>
<circle cx="90" cy="82" r="2" transform="rotate(90 90 82)" fill="white"/>
<circle cx="74" cy="2" r="2" transform="rotate(90 74 2)" fill="white"/>
<circle cx="74" cy="18" r="2" transform="rotate(90 74 18)" fill="white"/>
<circle cx="74" cy="34" r="2" transform="rotate(90 74 34)" fill="white"/>
<circle cx="74" cy="50" r="2" transform="rotate(90 74 50)" fill="white"/>
<circle cx="74" cy="66" r="2" transform="rotate(90 74 66)" fill="white"/>
<circle cx="74" cy="82" r="2" transform="rotate(90 74 82)" fill="white"/>
<circle cx="58" cy="2" r="2" transform="rotate(90 58 2)" fill="white"/>
<circle cx="58" cy="18" r="2" transform="rotate(90 58 18)" fill="white"/>
<circle cx="58" cy="34" r="2" transform="rotate(90 58 34)" fill="white"/>
<circle cx="58" cy="50" r="2" transform="rotate(90 58 50)" fill="white"/>
<circle cx="58" cy="66" r="2" transform="rotate(90 58 66)" fill="white"/>
<circle cx="58" cy="82" r="2" transform="rotate(90 58 82)" fill="white"/>
<circle cx="42" cy="2" r="2" transform="rotate(90 42 2)" fill="white"/>
<circle cx="42" cy="18" r="2" transform="rotate(90 42 18)" fill="white"/>
<circle cx="42" cy="34" r="2" transform="rotate(90 42 34)" fill="white"/>
<circle cx="42" cy="50" r="2" transform="rotate(90 42 50)" fill="white"/>
<circle cx="42" cy="66" r="2" transform="rotate(90 42 66)" fill="white"/>
<circle cx="42" cy="82" r="2" transform="rotate(90 42 82)" fill="white"/>
<circle cx="26" cy="2" r="2" transform="rotate(90 26 2)" fill="white"/>
<circle cx="26" cy="18" r="2" transform="rotate(90 26 18)" fill="white"/>
<circle cx="26" cy="34" r="2" transform="rotate(90 26 34)" fill="white"/>
<circle cx="26" cy="50" r="2" transform="rotate(90 26 50)" fill="white"/>
<circle cx="26" cy="66" r="2" transform="rotate(90 26 66)" fill="white"/>
<circle cx="26" cy="82" r="2" transform="rotate(90 26 82)" fill="white"/>
<circle cx="10" cy="2" r="2" transform="rotate(90 10 2)" fill="white"/>
<circle cx="10" cy="18" r="2" transform="rotate(90 10 18)" fill="white"/>
<circle cx="10" cy="34" r="2" transform="rotate(90 10 34)" fill="white"/>
<circle cx="10" cy="50" r="2" transform="rotate(90 10 50)" fill="white"/>
<circle cx="10" cy="66" r="2" transform="rotate(90 10 66)" fill="white"/>
<circle cx="10" cy="82" r="2" transform="rotate(90 10 82)" fill="white"/>
</g>
</svg>
