<svg width="77" height="152" viewBox="0 0 77 152" fill="none" xmlns="http://www.w3.org/2000/svg">
<g opacity="0.32">
<circle cx="66" cy="6" r="2" transform="rotate(90 66 6)" fill="white"/>
<circle cx="66" cy="22" r="2" transform="rotate(90 66 22)" fill="white"/>
<circle cx="66" cy="38" r="2" transform="rotate(90 66 38)" fill="white"/>
<circle cx="66" cy="54" r="2" transform="rotate(90 66 54)" fill="white"/>
<circle cx="66" cy="70" r="2" transform="rotate(90 66 70)" fill="white"/>
<circle cx="66" cy="86" r="2" transform="rotate(90 66 86)" fill="white"/>
<circle cx="66" cy="102" r="2" transform="rotate(90 66 102)" fill="white"/>
<circle cx="66" cy="118" r="2" transform="rotate(90 66 118)" fill="white"/>
<circle cx="66" cy="134" r="2" transform="rotate(90 66 134)" fill="white"/>
<circle cx="66" cy="150" r="2" transform="rotate(90 66 150)" fill="white"/>
<circle cx="50" cy="6" r="2" transform="rotate(90 50 6)" fill="white"/>
<circle cx="50" cy="22" r="2" transform="rotate(90 50 22)" fill="white"/>
<circle cx="50" cy="38" r="2" transform="rotate(90 50 38)" fill="white"/>
<circle cx="50" cy="54" r="2" transform="rotate(90 50 54)" fill="white"/>
<circle cx="50" cy="70" r="2" transform="rotate(90 50 70)" fill="white"/>
<circle cx="50" cy="86" r="2" transform="rotate(90 50 86)" fill="white"/>
<circle cx="50" cy="102" r="2" transform="rotate(90 50 102)" fill="white"/>
<circle cx="50" cy="118" r="2" transform="rotate(90 50 118)" fill="white"/>
<circle cx="50" cy="134" r="2" transform="rotate(90 50 134)" fill="white"/>
<circle cx="50" cy="150" r="2" transform="rotate(90 50 150)" fill="white"/>
<circle cx="34" cy="6" r="2" transform="rotate(90 34 6)" fill="white"/>
<circle cx="34" cy="22" r="2" transform="rotate(90 34 22)" fill="white"/>
<circle cx="34" cy="38" r="2" transform="rotate(90 34 38)" fill="white"/>
<circle cx="34" cy="54" r="2" transform="rotate(90 34 54)" fill="white"/>
<circle cx="34" cy="70" r="2" transform="rotate(90 34 70)" fill="white"/>
<circle cx="34" cy="86" r="2" transform="rotate(90 34 86)" fill="white"/>
<circle cx="34" cy="102" r="2" transform="rotate(90 34 102)" fill="white"/>
<circle cx="34" cy="118" r="2" transform="rotate(90 34 118)" fill="white"/>
<circle cx="34" cy="134" r="2" transform="rotate(90 34 134)" fill="white"/>
<circle cx="34" cy="150" r="2" transform="rotate(90 34 150)" fill="white"/>
<circle cx="18" cy="6" r="2" transform="rotate(90 18 6)" fill="white"/>
<circle cx="18" cy="22" r="2" transform="rotate(90 18 22)" fill="white"/>
<circle cx="18" cy="38" r="2" transform="rotate(90 18 38)" fill="white"/>
<circle cx="18" cy="54" r="2" transform="rotate(90 18 54)" fill="white"/>
<circle cx="18" cy="70" r="2" transform="rotate(90 18 70)" fill="white"/>
<circle cx="18" cy="86" r="2" transform="rotate(90 18 86)" fill="white"/>
<circle cx="18" cy="102" r="2" transform="rotate(90 18 102)" fill="white"/>
<circle cx="18" cy="118" r="2" transform="rotate(90 18 118)" fill="white"/>
<circle cx="18" cy="134" r="2" transform="rotate(90 18 134)" fill="white"/>
<circle cx="18" cy="150" r="2" transform="rotate(90 18 150)" fill="white"/>
<circle cx="2" cy="6" r="2" transform="rotate(90 2 6)" fill="white"/>
<circle cx="2" cy="22" r="2" transform="rotate(90 2 22)" fill="white"/>
<circle cx="2" cy="38" r="2" transform="rotate(90 2 38)" fill="white"/>
<circle cx="2" cy="54" r="2" transform="rotate(90 2 54)" fill="white"/>
<circle cx="2" cy="70" r="2" transform="rotate(90 2 70)" fill="white"/>
<circle cx="2" cy="86" r="2" transform="rotate(90 2 86)" fill="white"/>
<circle cx="2" cy="102" r="2" transform="rotate(90 2 102)" fill="white"/>
<circle cx="2" cy="118" r="2" transform="rotate(90 2 118)" fill="white"/>
<circle cx="2" cy="134" r="2" transform="rotate(90 2 134)" fill="white"/>
<circle cx="2" cy="150" r="2" transform="rotate(90 2 150)" fill="white"/>
</g>
</svg>
