<svg width="532" height="260" viewBox="0 0 532 260" fill="none" xmlns="http://www.w3.org/2000/svg">
<circle cx="2" cy="2" r="2" fill="#1A96EF"/>
<circle cx="18" cy="2" r="2" fill="#1A96EF"/>
<circle cx="34" cy="2" r="2" fill="#1A96EF"/>
<circle cx="50" cy="2" r="2" fill="#1A96EF"/>
<circle cx="66" cy="2" r="2" fill="#1A96EF"/>
<circle cx="82" cy="2" r="2" fill="#1A96EF"/>
<circle cx="98" cy="2" r="2" fill="#1A96EF"/>
<circle cx="114" cy="2" r="2" fill="#1A96EF"/>
<circle cx="130" cy="2" r="2" fill="#1A96EF"/>
<circle cx="146" cy="2" r="2" fill="#1A96EF"/>
<circle cx="162" cy="2" r="2" fill="#1A96EF"/>
<circle cx="178" cy="2" r="2" fill="#1A96EF"/>
<circle cx="194" cy="2" r="2" fill="#1A96EF"/>
<circle cx="210" cy="2" r="2" fill="#1A96EF"/>
<circle cx="226" cy="2" r="2" fill="#1A96EF"/>
<circle cx="242" cy="2" r="2" fill="#1A96EF"/>
<circle cx="258" cy="2" r="2" fill="#1A96EF"/>
<circle cx="274" cy="2" r="2" fill="#1A96EF"/>
<circle cx="290" cy="2" r="2" fill="#1A96EF"/>
<circle cx="306" cy="2" r="2" fill="#1A96EF"/>
<circle cx="322" cy="2" r="2" fill="#1A96EF"/>
<circle cx="338" cy="2" r="2" fill="#1A96EF"/>
<circle cx="354" cy="2" r="2" fill="#1A96EF"/>
<circle cx="370" cy="2" r="2" fill="#1A96EF"/>
<circle cx="386" cy="2" r="2" fill="#1A96EF"/>
<circle cx="402" cy="2" r="2" fill="#1A96EF"/>
<circle cx="418" cy="2" r="2" fill="#1A96EF"/>
<circle cx="434" cy="2" r="2" fill="#1A96EF"/>
<circle cx="450" cy="2" r="2" fill="#1A96EF"/>
<circle cx="466" cy="2" r="2" fill="#1A96EF"/>
<circle cx="482" cy="2" r="2" fill="#1A96EF"/>
<circle cx="498" cy="2" r="2" fill="#1A96EF"/>
<circle cx="514" cy="2" r="2" fill="#1A96EF"/>
<circle cx="530" cy="2" r="2" fill="#1A96EF"/>
<circle cx="2" cy="18" r="2" fill="#1A96EF"/>
<circle cx="18" cy="18" r="2" fill="#1A96EF"/>
<circle cx="34" cy="18" r="2" fill="#1A96EF"/>
<circle cx="50" cy="18" r="2" fill="#1A96EF"/>
<circle cx="66" cy="18" r="2" fill="#1A96EF"/>
<circle cx="82" cy="18" r="2" fill="#1A96EF"/>
<circle cx="98" cy="18" r="2" fill="#1A96EF"/>
<circle cx="114" cy="18" r="2" fill="#1A96EF"/>
<circle cx="130" cy="18" r="2" fill="#1A96EF"/>
<circle cx="146" cy="18" r="2" fill="#1A96EF"/>
<circle cx="162" cy="18" r="2" fill="#1A96EF"/>
<circle cx="178" cy="18" r="2" fill="#1A96EF"/>
<circle cx="194" cy="18" r="2" fill="#1A96EF"/>
<circle cx="210" cy="18" r="2" fill="#1A96EF"/>
<circle cx="226" cy="18" r="2" fill="#1A96EF"/>
<circle cx="242" cy="18" r="2" fill="#1A96EF"/>
<circle cx="258" cy="18" r="2" fill="#1A96EF"/>
<circle cx="274" cy="18" r="2" fill="#1A96EF"/>
<circle cx="290" cy="18" r="2" fill="#1A96EF"/>
<circle cx="306" cy="18" r="2" fill="#1A96EF"/>
<circle cx="322" cy="18" r="2" fill="#1A96EF"/>
<circle cx="338" cy="18" r="2" fill="#1A96EF"/>
<circle cx="354" cy="18" r="2" fill="#1A96EF"/>
<circle cx="370" cy="18" r="2" fill="#1A96EF"/>
<circle cx="386" cy="18" r="2" fill="#1A96EF"/>
<circle cx="402" cy="18" r="2" fill="#1A96EF"/>
<circle cx="418" cy="18" r="2" fill="#1A96EF"/>
<circle cx="434" cy="18" r="2" fill="#1A96EF"/>
<circle cx="450" cy="18" r="2" fill="#1A96EF"/>
<circle cx="466" cy="18" r="2" fill="#1A96EF"/>
<circle cx="482" cy="18" r="2" fill="#1A96EF"/>
<circle cx="498" cy="18" r="2" fill="#1A96EF"/>
<circle cx="514" cy="18" r="2" fill="#1A96EF"/>
<circle cx="530" cy="18" r="2" fill="#1A96EF"/>
<circle cx="2" cy="34" r="2" fill="#1A96EF"/>
<circle cx="18" cy="34" r="2" fill="#1A96EF"/>
<circle cx="34" cy="34" r="2" fill="#1A96EF"/>
<circle cx="50" cy="34" r="2" fill="#1A96EF"/>
<circle cx="66" cy="34" r="2" fill="#1A96EF"/>
<circle cx="82" cy="34" r="2" fill="#1A96EF"/>
<circle cx="98" cy="34" r="2" fill="#1A96EF"/>
<circle cx="114" cy="34" r="2" fill="#1A96EF"/>
<circle cx="130" cy="34" r="2" fill="#1A96EF"/>
<circle cx="146" cy="34" r="2" fill="#1A96EF"/>
<circle cx="162" cy="34" r="2" fill="#1A96EF"/>
<circle cx="178" cy="34" r="2" fill="#1A96EF"/>
<circle cx="194" cy="34" r="2" fill="#1A96EF"/>
<circle cx="210" cy="34" r="2" fill="#1A96EF"/>
<circle cx="226" cy="34" r="2" fill="#1A96EF"/>
<circle cx="242" cy="34" r="2" fill="#1A96EF"/>
<circle cx="258" cy="34" r="2" fill="#1A96EF"/>
<circle cx="274" cy="34" r="2" fill="#1A96EF"/>
<circle cx="290" cy="34" r="2" fill="#1A96EF"/>
<circle cx="306" cy="34" r="2" fill="#1A96EF"/>
<circle cx="322" cy="34" r="2" fill="#1A96EF"/>
<circle cx="338" cy="34" r="2" fill="#1A96EF"/>
<circle cx="354" cy="34" r="2" fill="#1A96EF"/>
<circle cx="370" cy="34" r="2" fill="#1A96EF"/>
<circle cx="386" cy="34" r="2" fill="#1A96EF"/>
<circle cx="402" cy="34" r="2" fill="#1A96EF"/>
<circle cx="418" cy="34" r="2" fill="#1A96EF"/>
<circle cx="434" cy="34" r="2" fill="#1A96EF"/>
<circle cx="450" cy="34" r="2" fill="#1A96EF"/>
<circle cx="466" cy="34" r="2" fill="#1A96EF"/>
<circle cx="482" cy="34" r="2" fill="#1A96EF"/>
<circle cx="498" cy="34" r="2" fill="#1A96EF"/>
<circle cx="514" cy="34" r="2" fill="#1A96EF"/>
<circle cx="530" cy="34" r="2" fill="#1A96EF"/>
<circle cx="2" cy="50" r="2" fill="#1A96EF"/>
<circle cx="18" cy="50" r="2" fill="#1A96EF"/>
<circle cx="34" cy="50" r="2" fill="#1A96EF"/>
<circle cx="50" cy="50" r="2" fill="#1A96EF"/>
<circle cx="66" cy="50" r="2" fill="#1A96EF"/>
<circle cx="82" cy="50" r="2" fill="#1A96EF"/>
<circle cx="98" cy="50" r="2" fill="#1A96EF"/>
<circle cx="114" cy="50" r="2" fill="#1A96EF"/>
<circle cx="130" cy="50" r="2" fill="#1A96EF"/>
<circle cx="146" cy="50" r="2" fill="#1A96EF"/>
<circle cx="162" cy="50" r="2" fill="#1A96EF"/>
<circle cx="178" cy="50" r="2" fill="#1A96EF"/>
<circle cx="194" cy="50" r="2" fill="#1A96EF"/>
<circle cx="210" cy="50" r="2" fill="#1A96EF"/>
<circle cx="226" cy="50" r="2" fill="#1A96EF"/>
<circle cx="242" cy="50" r="2" fill="#1A96EF"/>
<circle cx="258" cy="50" r="2" fill="#1A96EF"/>
<circle cx="274" cy="50" r="2" fill="#1A96EF"/>
<circle cx="290" cy="50" r="2" fill="#1A96EF"/>
<circle cx="306" cy="50" r="2" fill="#1A96EF"/>
<circle cx="322" cy="50" r="2" fill="#1A96EF"/>
<circle cx="338" cy="50" r="2" fill="#1A96EF"/>
<circle cx="354" cy="50" r="2" fill="#1A96EF"/>
<circle cx="370" cy="50" r="2" fill="#1A96EF"/>
<circle cx="386" cy="50" r="2" fill="#1A96EF"/>
<circle cx="402" cy="50" r="2" fill="#1A96EF"/>
<circle cx="418" cy="50" r="2" fill="#1A96EF"/>
<circle cx="434" cy="50" r="2" fill="#1A96EF"/>
<circle cx="450" cy="50" r="2" fill="#1A96EF"/>
<circle cx="466" cy="50" r="2" fill="#1A96EF"/>
<circle cx="482" cy="50" r="2" fill="#1A96EF"/>
<circle cx="498" cy="50" r="2" fill="#1A96EF"/>
<circle cx="514" cy="50" r="2" fill="#1A96EF"/>
<circle cx="530" cy="50" r="2" fill="#1A96EF"/>
<circle cx="2" cy="66" r="2" fill="#1A96EF"/>
<circle cx="18" cy="66" r="2" fill="#1A96EF"/>
<circle cx="34" cy="66" r="2" fill="#1A96EF"/>
<circle cx="50" cy="66" r="2" fill="#1A96EF"/>
<circle cx="66" cy="66" r="2" fill="#1A96EF"/>
<circle cx="82" cy="66" r="2" fill="#1A96EF"/>
<circle cx="98" cy="66" r="2" fill="#1A96EF"/>
<circle cx="114" cy="66" r="2" fill="#1A96EF"/>
<circle cx="130" cy="66" r="2" fill="#1A96EF"/>
<circle cx="146" cy="66" r="2" fill="#1A96EF"/>
<circle cx="162" cy="66" r="2" fill="#1A96EF"/>
<circle cx="178" cy="66" r="2" fill="#1A96EF"/>
<circle cx="194" cy="66" r="2" fill="#1A96EF"/>
<circle cx="210" cy="66" r="2" fill="#1A96EF"/>
<circle cx="226" cy="66" r="2" fill="#1A96EF"/>
<circle cx="242" cy="66" r="2" fill="#1A96EF"/>
<circle cx="258" cy="66" r="2" fill="#1A96EF"/>
<circle cx="274" cy="66" r="2" fill="#1A96EF"/>
<circle cx="290" cy="66" r="2" fill="#1A96EF"/>
<circle cx="306" cy="66" r="2" fill="#1A96EF"/>
<circle cx="322" cy="66" r="2" fill="#1A96EF"/>
<circle cx="338" cy="66" r="2" fill="#1A96EF"/>
<circle cx="354" cy="66" r="2" fill="#1A96EF"/>
<circle cx="370" cy="66" r="2" fill="#1A96EF"/>
<circle cx="386" cy="66" r="2" fill="#1A96EF"/>
<circle cx="402" cy="66" r="2" fill="#1A96EF"/>
<circle cx="418" cy="66" r="2" fill="#1A96EF"/>
<circle cx="434" cy="66" r="2" fill="#1A96EF"/>
<circle cx="450" cy="66" r="2" fill="#1A96EF"/>
<circle cx="466" cy="66" r="2" fill="#1A96EF"/>
<circle cx="482" cy="66" r="2" fill="#1A96EF"/>
<circle cx="498" cy="66" r="2" fill="#1A96EF"/>
<circle cx="514" cy="66" r="2" fill="#1A96EF"/>
<circle cx="530" cy="66" r="2" fill="#1A96EF"/>
<circle cx="2" cy="82" r="2" fill="#1A96EF"/>
<circle cx="18" cy="82" r="2" fill="#1A96EF"/>
<circle cx="34" cy="82" r="2" fill="#1A96EF"/>
<circle cx="50" cy="82" r="2" fill="#1A96EF"/>
<circle cx="66" cy="82" r="2" fill="#1A96EF"/>
<circle cx="82" cy="82" r="2" fill="#1A96EF"/>
<circle cx="98" cy="82" r="2" fill="#1A96EF"/>
<circle cx="114" cy="82" r="2" fill="#1A96EF"/>
<circle cx="130" cy="82" r="2" fill="#1A96EF"/>
<circle cx="146" cy="82" r="2" fill="#1A96EF"/>
<circle cx="162" cy="82" r="2" fill="#1A96EF"/>
<circle cx="178" cy="82" r="2" fill="#1A96EF"/>
<circle cx="194" cy="82" r="2" fill="#1A96EF"/>
<circle cx="210" cy="82" r="2" fill="#1A96EF"/>
<circle cx="226" cy="82" r="2" fill="#1A96EF"/>
<circle cx="242" cy="82" r="2" fill="#1A96EF"/>
<circle cx="258" cy="82" r="2" fill="#1A96EF"/>
<circle cx="274" cy="82" r="2" fill="#1A96EF"/>
<circle cx="290" cy="82" r="2" fill="#1A96EF"/>
<circle cx="306" cy="82" r="2" fill="#1A96EF"/>
<circle cx="322" cy="82" r="2" fill="#1A96EF"/>
<circle cx="338" cy="82" r="2" fill="#1A96EF"/>
<circle cx="354" cy="82" r="2" fill="#1A96EF"/>
<circle cx="370" cy="82" r="2" fill="#1A96EF"/>
<circle cx="386" cy="82" r="2" fill="#1A96EF"/>
<circle cx="402" cy="82" r="2" fill="#1A96EF"/>
<circle cx="418" cy="82" r="2" fill="#1A96EF"/>
<circle cx="434" cy="82" r="2" fill="#1A96EF"/>
<circle cx="450" cy="82" r="2" fill="#1A96EF"/>
<circle cx="466" cy="82" r="2" fill="#1A96EF"/>
<circle cx="482" cy="82" r="2" fill="#1A96EF"/>
<circle cx="498" cy="82" r="2" fill="#1A96EF"/>
<circle cx="514" cy="82" r="2" fill="#1A96EF"/>
<circle cx="530" cy="82" r="2" fill="#1A96EF"/>
<circle cx="2" cy="98" r="2" fill="#1A96EF"/>
<circle cx="18" cy="98" r="2" fill="#1A96EF"/>
<circle cx="34" cy="98" r="2" fill="#1A96EF"/>
<circle cx="50" cy="98" r="2" fill="#1A96EF"/>
<circle cx="66" cy="98" r="2" fill="#1A96EF"/>
<circle cx="82" cy="98" r="2" fill="#1A96EF"/>
<circle cx="98" cy="98" r="2" fill="#1A96EF"/>
<circle cx="114" cy="98" r="2" fill="#1A96EF"/>
<circle cx="130" cy="98" r="2" fill="#1A96EF"/>
<circle cx="146" cy="98" r="2" fill="#1A96EF"/>
<circle cx="162" cy="98" r="2" fill="#1A96EF"/>
<circle cx="178" cy="98" r="2" fill="#1A96EF"/>
<circle cx="194" cy="98" r="2" fill="#1A96EF"/>
<circle cx="210" cy="98" r="2" fill="#1A96EF"/>
<circle cx="226" cy="98" r="2" fill="#1A96EF"/>
<circle cx="242" cy="98" r="2" fill="#1A96EF"/>
<circle cx="258" cy="98" r="2" fill="#1A96EF"/>
<circle cx="274" cy="98" r="2" fill="#1A96EF"/>
<circle cx="290" cy="98" r="2" fill="#1A96EF"/>
<circle cx="306" cy="98" r="2" fill="#1A96EF"/>
<circle cx="322" cy="98" r="2" fill="#1A96EF"/>
<circle cx="338" cy="98" r="2" fill="#1A96EF"/>
<circle cx="354" cy="98" r="2" fill="#1A96EF"/>
<circle cx="370" cy="98" r="2" fill="#1A96EF"/>
<circle cx="386" cy="98" r="2" fill="#1A96EF"/>
<circle cx="402" cy="98" r="2" fill="#1A96EF"/>
<circle cx="418" cy="98" r="2" fill="#1A96EF"/>
<circle cx="434" cy="98" r="2" fill="#1A96EF"/>
<circle cx="450" cy="98" r="2" fill="#1A96EF"/>
<circle cx="466" cy="98" r="2" fill="#1A96EF"/>
<circle cx="482" cy="98" r="2" fill="#1A96EF"/>
<circle cx="498" cy="98" r="2" fill="#1A96EF"/>
<circle cx="514" cy="98" r="2" fill="#1A96EF"/>
<circle cx="530" cy="98" r="2" fill="#1A96EF"/>
<circle cx="2" cy="114" r="2" fill="#1A96EF"/>
<circle cx="18" cy="114" r="2" fill="#1A96EF"/>
<circle cx="34" cy="114" r="2" fill="#1A96EF"/>
<circle cx="50" cy="114" r="2" fill="#1A96EF"/>
<circle cx="66" cy="114" r="2" fill="#1A96EF"/>
<circle cx="82" cy="114" r="2" fill="#1A96EF"/>
<circle cx="98" cy="114" r="2" fill="#1A96EF"/>
<circle cx="114" cy="114" r="2" fill="#1A96EF"/>
<circle cx="130" cy="114" r="2" fill="#1A96EF"/>
<circle cx="146" cy="114" r="2" fill="#1A96EF"/>
<circle cx="162" cy="114" r="2" fill="#1A96EF"/>
<circle cx="178" cy="114" r="2" fill="#1A96EF"/>
<circle cx="194" cy="114" r="2" fill="#1A96EF"/>
<circle cx="210" cy="114" r="2" fill="#1A96EF"/>
<circle cx="226" cy="114" r="2" fill="#1A96EF"/>
<circle cx="242" cy="114" r="2" fill="#1A96EF"/>
<circle cx="258" cy="114" r="2" fill="#1A96EF"/>
<circle cx="274" cy="114" r="2" fill="#1A96EF"/>
<circle cx="290" cy="114" r="2" fill="#1A96EF"/>
<circle cx="306" cy="114" r="2" fill="#1A96EF"/>
<circle cx="322" cy="114" r="2" fill="#1A96EF"/>
<circle cx="338" cy="114" r="2" fill="#1A96EF"/>
<circle cx="354" cy="114" r="2" fill="#1A96EF"/>
<circle cx="370" cy="114" r="2" fill="#1A96EF"/>
<circle cx="386" cy="114" r="2" fill="#1A96EF"/>
<circle cx="402" cy="114" r="2" fill="#1A96EF"/>
<circle cx="418" cy="114" r="2" fill="#1A96EF"/>
<circle cx="434" cy="114" r="2" fill="#1A96EF"/>
<circle cx="450" cy="114" r="2" fill="#1A96EF"/>
<circle cx="466" cy="114" r="2" fill="#1A96EF"/>
<circle cx="482" cy="114" r="2" fill="#1A96EF"/>
<circle cx="498" cy="114" r="2" fill="#1A96EF"/>
<circle cx="514" cy="114" r="2" fill="#1A96EF"/>
<circle cx="530" cy="114" r="2" fill="#1A96EF"/>
<circle cx="2" cy="130" r="2" fill="#1A96EF"/>
<circle cx="18" cy="130" r="2" fill="#1A96EF"/>
<circle cx="34" cy="130" r="2" fill="#1A96EF"/>
<circle cx="50" cy="130" r="2" fill="#1A96EF"/>
<circle cx="66" cy="130" r="2" fill="#1A96EF"/>
<circle cx="82" cy="130" r="2" fill="#1A96EF"/>
<circle cx="98" cy="130" r="2" fill="#1A96EF"/>
<circle cx="114" cy="130" r="2" fill="#1A96EF"/>
<circle cx="130" cy="130" r="2" fill="#1A96EF"/>
<circle cx="146" cy="130" r="2" fill="#1A96EF"/>
<circle cx="162" cy="130" r="2" fill="#1A96EF"/>
<circle cx="178" cy="130" r="2" fill="#1A96EF"/>
<circle cx="194" cy="130" r="2" fill="#1A96EF"/>
<circle cx="210" cy="130" r="2" fill="#1A96EF"/>
<circle cx="226" cy="130" r="2" fill="#1A96EF"/>
<circle cx="242" cy="130" r="2" fill="#1A96EF"/>
<circle cx="258" cy="130" r="2" fill="#1A96EF"/>
<circle cx="274" cy="130" r="2" fill="#1A96EF"/>
<circle cx="290" cy="130" r="2" fill="#1A96EF"/>
<circle cx="306" cy="130" r="2" fill="#1A96EF"/>
<circle cx="322" cy="130" r="2" fill="#1A96EF"/>
<circle cx="338" cy="130" r="2" fill="#1A96EF"/>
<circle cx="354" cy="130" r="2" fill="#1A96EF"/>
<circle cx="370" cy="130" r="2" fill="#1A96EF"/>
<circle cx="386" cy="130" r="2" fill="#1A96EF"/>
<circle cx="402" cy="130" r="2" fill="#1A96EF"/>
<circle cx="418" cy="130" r="2" fill="#1A96EF"/>
<circle cx="434" cy="130" r="2" fill="#1A96EF"/>
<circle cx="450" cy="130" r="2" fill="#1A96EF"/>
<circle cx="466" cy="130" r="2" fill="#1A96EF"/>
<circle cx="482" cy="130" r="2" fill="#1A96EF"/>
<circle cx="498" cy="130" r="2" fill="#1A96EF"/>
<circle cx="514" cy="130" r="2" fill="#1A96EF"/>
<circle cx="530" cy="130" r="2" fill="#1A96EF"/>
<circle cx="2" cy="146" r="2" fill="#1A96EF"/>
<circle cx="18" cy="146" r="2" fill="#1A96EF"/>
<circle cx="34" cy="146" r="2" fill="#1A96EF"/>
<circle cx="50" cy="146" r="2" fill="#1A96EF"/>
<circle cx="66" cy="146" r="2" fill="#1A96EF"/>
<circle cx="82" cy="146" r="2" fill="#1A96EF"/>
<circle cx="98" cy="146" r="2" fill="#1A96EF"/>
<circle cx="114" cy="146" r="2" fill="#1A96EF"/>
<circle cx="130" cy="146" r="2" fill="#1A96EF"/>
<circle cx="146" cy="146" r="2" fill="#1A96EF"/>
<circle cx="162" cy="146" r="2" fill="#1A96EF"/>
<circle cx="178" cy="146" r="2" fill="#1A96EF"/>
<circle cx="194" cy="146" r="2" fill="#1A96EF"/>
<circle cx="210" cy="146" r="2" fill="#1A96EF"/>
<circle cx="226" cy="146" r="2" fill="#1A96EF"/>
<circle cx="242" cy="146" r="2" fill="#1A96EF"/>
<circle cx="258" cy="146" r="2" fill="#1A96EF"/>
<circle cx="274" cy="146" r="2" fill="#1A96EF"/>
<circle cx="290" cy="146" r="2" fill="#1A96EF"/>
<circle cx="306" cy="146" r="2" fill="#1A96EF"/>
<circle cx="322" cy="146" r="2" fill="#1A96EF"/>
<circle cx="338" cy="146" r="2" fill="#1A96EF"/>
<circle cx="354" cy="146" r="2" fill="#1A96EF"/>
<circle cx="370" cy="146" r="2" fill="#1A96EF"/>
<circle cx="386" cy="146" r="2" fill="#1A96EF"/>
<circle cx="402" cy="146" r="2" fill="#1A96EF"/>
<circle cx="418" cy="146" r="2" fill="#1A96EF"/>
<circle cx="434" cy="146" r="2" fill="#1A96EF"/>
<circle cx="450" cy="146" r="2" fill="#1A96EF"/>
<circle cx="466" cy="146" r="2" fill="#1A96EF"/>
<circle cx="482" cy="146" r="2" fill="#1A96EF"/>
<circle cx="498" cy="146" r="2" fill="#1A96EF"/>
<circle cx="514" cy="146" r="2" fill="#1A96EF"/>
<circle cx="530" cy="146" r="2" fill="#1A96EF"/>
<circle cx="2" cy="162" r="2" fill="#1A96EF"/>
<circle cx="18" cy="162" r="2" fill="#1A96EF"/>
<circle cx="34" cy="162" r="2" fill="#1A96EF"/>
<circle cx="50" cy="162" r="2" fill="#1A96EF"/>
<circle cx="66" cy="162" r="2" fill="#1A96EF"/>
<circle cx="82" cy="162" r="2" fill="#1A96EF"/>
<circle cx="98" cy="162" r="2" fill="#1A96EF"/>
<circle cx="114" cy="162" r="2" fill="#1A96EF"/>
<circle cx="130" cy="162" r="2" fill="#1A96EF"/>
<circle cx="146" cy="162" r="2" fill="#1A96EF"/>
<circle cx="162" cy="162" r="2" fill="#1A96EF"/>
<circle cx="178" cy="162" r="2" fill="#1A96EF"/>
<circle cx="194" cy="162" r="2" fill="#1A96EF"/>
<circle cx="210" cy="162" r="2" fill="#1A96EF"/>
<circle cx="226" cy="162" r="2" fill="#1A96EF"/>
<circle cx="242" cy="162" r="2" fill="#1A96EF"/>
<circle cx="258" cy="162" r="2" fill="#1A96EF"/>
<circle cx="274" cy="162" r="2" fill="#1A96EF"/>
<circle cx="290" cy="162" r="2" fill="#1A96EF"/>
<circle cx="306" cy="162" r="2" fill="#1A96EF"/>
<circle cx="322" cy="162" r="2" fill="#1A96EF"/>
<circle cx="338" cy="162" r="2" fill="#1A96EF"/>
<circle cx="354" cy="162" r="2" fill="#1A96EF"/>
<circle cx="370" cy="162" r="2" fill="#1A96EF"/>
<circle cx="386" cy="162" r="2" fill="#1A96EF"/>
<circle cx="402" cy="162" r="2" fill="#1A96EF"/>
<circle cx="418" cy="162" r="2" fill="#1A96EF"/>
<circle cx="434" cy="162" r="2" fill="#1A96EF"/>
<circle cx="450" cy="162" r="2" fill="#1A96EF"/>
<circle cx="466" cy="162" r="2" fill="#1A96EF"/>
<circle cx="482" cy="162" r="2" fill="#1A96EF"/>
<circle cx="498" cy="162" r="2" fill="#1A96EF"/>
<circle cx="514" cy="162" r="2" fill="#1A96EF"/>
<circle cx="530" cy="162" r="2" fill="#1A96EF"/>
<circle cx="2" cy="178" r="2" fill="#1A96EF"/>
<circle cx="18" cy="178" r="2" fill="#1A96EF"/>
<circle cx="34" cy="178" r="2" fill="#1A96EF"/>
<circle cx="50" cy="178" r="2" fill="#1A96EF"/>
<circle cx="66" cy="178" r="2" fill="#1A96EF"/>
<circle cx="82" cy="178" r="2" fill="#1A96EF"/>
<circle cx="98" cy="178" r="2" fill="#1A96EF"/>
<circle cx="114" cy="178" r="2" fill="#1A96EF"/>
<circle cx="130" cy="178" r="2" fill="#1A96EF"/>
<circle cx="146" cy="178" r="2" fill="#1A96EF"/>
<circle cx="162" cy="178" r="2" fill="#1A96EF"/>
<circle cx="178" cy="178" r="2" fill="#1A96EF"/>
<circle cx="194" cy="178" r="2" fill="#1A96EF"/>
<circle cx="210" cy="178" r="2" fill="#1A96EF"/>
<circle cx="226" cy="178" r="2" fill="#1A96EF"/>
<circle cx="242" cy="178" r="2" fill="#1A96EF"/>
<circle cx="258" cy="178" r="2" fill="#1A96EF"/>
<circle cx="274" cy="178" r="2" fill="#1A96EF"/>
<circle cx="290" cy="178" r="2" fill="#1A96EF"/>
<circle cx="306" cy="178" r="2" fill="#1A96EF"/>
<circle cx="322" cy="178" r="2" fill="#1A96EF"/>
<circle cx="338" cy="178" r="2" fill="#1A96EF"/>
<circle cx="354" cy="178" r="2" fill="#1A96EF"/>
<circle cx="370" cy="178" r="2" fill="#1A96EF"/>
<circle cx="386" cy="178" r="2" fill="#1A96EF"/>
<circle cx="402" cy="178" r="2" fill="#1A96EF"/>
<circle cx="418" cy="178" r="2" fill="#1A96EF"/>
<circle cx="434" cy="178" r="2" fill="#1A96EF"/>
<circle cx="450" cy="178" r="2" fill="#1A96EF"/>
<circle cx="466" cy="178" r="2" fill="#1A96EF"/>
<circle cx="482" cy="178" r="2" fill="#1A96EF"/>
<circle cx="498" cy="178" r="2" fill="#1A96EF"/>
<circle cx="514" cy="178" r="2" fill="#1A96EF"/>
<circle cx="530" cy="178" r="2" fill="#1A96EF"/>
<circle cx="2" cy="194" r="2" fill="#1A96EF"/>
<circle cx="18" cy="194" r="2" fill="#1A96EF"/>
<circle cx="34" cy="194" r="2" fill="#1A96EF"/>
<circle cx="50" cy="194" r="2" fill="#1A96EF"/>
<circle cx="66" cy="194" r="2" fill="#1A96EF"/>
<circle cx="82" cy="194" r="2" fill="#1A96EF"/>
<circle cx="98" cy="194" r="2" fill="#1A96EF"/>
<circle cx="114" cy="194" r="2" fill="#1A96EF"/>
<circle cx="130" cy="194" r="2" fill="#1A96EF"/>
<circle cx="146" cy="194" r="2" fill="#1A96EF"/>
<circle cx="162" cy="194" r="2" fill="#1A96EF"/>
<circle cx="178" cy="194" r="2" fill="#1A96EF"/>
<circle cx="194" cy="194" r="2" fill="#1A96EF"/>
<circle cx="210" cy="194" r="2" fill="#1A96EF"/>
<circle cx="226" cy="194" r="2" fill="#1A96EF"/>
<circle cx="242" cy="194" r="2" fill="#1A96EF"/>
<circle cx="258" cy="194" r="2" fill="#1A96EF"/>
<circle cx="274" cy="194" r="2" fill="#1A96EF"/>
<circle cx="290" cy="194" r="2" fill="#1A96EF"/>
<circle cx="306" cy="194" r="2" fill="#1A96EF"/>
<circle cx="322" cy="194" r="2" fill="#1A96EF"/>
<circle cx="338" cy="194" r="2" fill="#1A96EF"/>
<circle cx="354" cy="194" r="2" fill="#1A96EF"/>
<circle cx="370" cy="194" r="2" fill="#1A96EF"/>
<circle cx="386" cy="194" r="2" fill="#1A96EF"/>
<circle cx="402" cy="194" r="2" fill="#1A96EF"/>
<circle cx="418" cy="194" r="2" fill="#1A96EF"/>
<circle cx="434" cy="194" r="2" fill="#1A96EF"/>
<circle cx="450" cy="194" r="2" fill="#1A96EF"/>
<circle cx="466" cy="194" r="2" fill="#1A96EF"/>
<circle cx="482" cy="194" r="2" fill="#1A96EF"/>
<circle cx="498" cy="194" r="2" fill="#1A96EF"/>
<circle cx="514" cy="194" r="2" fill="#1A96EF"/>
<circle cx="530" cy="194" r="2" fill="#1A96EF"/>
<circle cx="2" cy="210" r="2" fill="#1A96EF"/>
<circle cx="18" cy="210" r="2" fill="#1A96EF"/>
<circle cx="34" cy="210" r="2" fill="#1A96EF"/>
<circle cx="50" cy="210" r="2" fill="#1A96EF"/>
<circle cx="66" cy="210" r="2" fill="#1A96EF"/>
<circle cx="82" cy="210" r="2" fill="#1A96EF"/>
<circle cx="98" cy="210" r="2" fill="#1A96EF"/>
<circle cx="114" cy="210" r="2" fill="#1A96EF"/>
<circle cx="130" cy="210" r="2" fill="#1A96EF"/>
<circle cx="146" cy="210" r="2" fill="#1A96EF"/>
<circle cx="162" cy="210" r="2" fill="#1A96EF"/>
<circle cx="178" cy="210" r="2" fill="#1A96EF"/>
<circle cx="194" cy="210" r="2" fill="#1A96EF"/>
<circle cx="210" cy="210" r="2" fill="#1A96EF"/>
<circle cx="226" cy="210" r="2" fill="#1A96EF"/>
<circle cx="242" cy="210" r="2" fill="#1A96EF"/>
<circle cx="258" cy="210" r="2" fill="#1A96EF"/>
<circle cx="274" cy="210" r="2" fill="#1A96EF"/>
<circle cx="290" cy="210" r="2" fill="#1A96EF"/>
<circle cx="306" cy="210" r="2" fill="#1A96EF"/>
<circle cx="322" cy="210" r="2" fill="#1A96EF"/>
<circle cx="338" cy="210" r="2" fill="#1A96EF"/>
<circle cx="354" cy="210" r="2" fill="#1A96EF"/>
<circle cx="370" cy="210" r="2" fill="#1A96EF"/>
<circle cx="386" cy="210" r="2" fill="#1A96EF"/>
<circle cx="402" cy="210" r="2" fill="#1A96EF"/>
<circle cx="418" cy="210" r="2" fill="#1A96EF"/>
<circle cx="434" cy="210" r="2" fill="#1A96EF"/>
<circle cx="450" cy="210" r="2" fill="#1A96EF"/>
<circle cx="466" cy="210" r="2" fill="#1A96EF"/>
<circle cx="482" cy="210" r="2" fill="#1A96EF"/>
<circle cx="498" cy="210" r="2" fill="#1A96EF"/>
<circle cx="514" cy="210" r="2" fill="#1A96EF"/>
<circle cx="530" cy="210" r="2" fill="#1A96EF"/>
<circle cx="2" cy="226" r="2" fill="#1A96EF"/>
<circle cx="18" cy="226" r="2" fill="#1A96EF"/>
<circle cx="34" cy="226" r="2" fill="#1A96EF"/>
<circle cx="50" cy="226" r="2" fill="#1A96EF"/>
<circle cx="66" cy="226" r="2" fill="#1A96EF"/>
<circle cx="82" cy="226" r="2" fill="#1A96EF"/>
<circle cx="98" cy="226" r="2" fill="#1A96EF"/>
<circle cx="114" cy="226" r="2" fill="#1A96EF"/>
<circle cx="130" cy="226" r="2" fill="#1A96EF"/>
<circle cx="146" cy="226" r="2" fill="#1A96EF"/>
<circle cx="162" cy="226" r="2" fill="#1A96EF"/>
<circle cx="178" cy="226" r="2" fill="#1A96EF"/>
<circle cx="194" cy="226" r="2" fill="#1A96EF"/>
<circle cx="210" cy="226" r="2" fill="#1A96EF"/>
<circle cx="226" cy="226" r="2" fill="#1A96EF"/>
<circle cx="242" cy="226" r="2" fill="#1A96EF"/>
<circle cx="258" cy="226" r="2" fill="#1A96EF"/>
<circle cx="274" cy="226" r="2" fill="#1A96EF"/>
<circle cx="290" cy="226" r="2" fill="#1A96EF"/>
<circle cx="306" cy="226" r="2" fill="#1A96EF"/>
<circle cx="322" cy="226" r="2" fill="#1A96EF"/>
<circle cx="338" cy="226" r="2" fill="#1A96EF"/>
<circle cx="354" cy="226" r="2" fill="#1A96EF"/>
<circle cx="370" cy="226" r="2" fill="#1A96EF"/>
<circle cx="386" cy="226" r="2" fill="#1A96EF"/>
<circle cx="402" cy="226" r="2" fill="#1A96EF"/>
<circle cx="418" cy="226" r="2" fill="#1A96EF"/>
<circle cx="434" cy="226" r="2" fill="#1A96EF"/>
<circle cx="450" cy="226" r="2" fill="#1A96EF"/>
<circle cx="466" cy="226" r="2" fill="#1A96EF"/>
<circle cx="482" cy="226" r="2" fill="#1A96EF"/>
<circle cx="498" cy="226" r="2" fill="#1A96EF"/>
<circle cx="514" cy="226" r="2" fill="#1A96EF"/>
<circle cx="530" cy="226" r="2" fill="#1A96EF"/>
<circle cx="2" cy="242" r="2" fill="#1A96EF"/>
<circle cx="18" cy="242" r="2" fill="#1A96EF"/>
<circle cx="34" cy="242" r="2" fill="#1A96EF"/>
<circle cx="50" cy="242" r="2" fill="#1A96EF"/>
<circle cx="66" cy="242" r="2" fill="#1A96EF"/>
<circle cx="82" cy="242" r="2" fill="#1A96EF"/>
<circle cx="98" cy="242" r="2" fill="#1A96EF"/>
<circle cx="114" cy="242" r="2" fill="#1A96EF"/>
<circle cx="130" cy="242" r="2" fill="#1A96EF"/>
<circle cx="146" cy="242" r="2" fill="#1A96EF"/>
<circle cx="162" cy="242" r="2" fill="#1A96EF"/>
<circle cx="178" cy="242" r="2" fill="#1A96EF"/>
<circle cx="194" cy="242" r="2" fill="#1A96EF"/>
<circle cx="210" cy="242" r="2" fill="#1A96EF"/>
<circle cx="226" cy="242" r="2" fill="#1A96EF"/>
<circle cx="242" cy="242" r="2" fill="#1A96EF"/>
<circle cx="258" cy="242" r="2" fill="#1A96EF"/>
<circle cx="274" cy="242" r="2" fill="#1A96EF"/>
<circle cx="290" cy="242" r="2" fill="#1A96EF"/>
<circle cx="306" cy="242" r="2" fill="#1A96EF"/>
<circle cx="322" cy="242" r="2" fill="#1A96EF"/>
<circle cx="338" cy="242" r="2" fill="#1A96EF"/>
<circle cx="354" cy="242" r="2" fill="#1A96EF"/>
<circle cx="370" cy="242" r="2" fill="#1A96EF"/>
<circle cx="386" cy="242" r="2" fill="#1A96EF"/>
<circle cx="402" cy="242" r="2" fill="#1A96EF"/>
<circle cx="418" cy="242" r="2" fill="#1A96EF"/>
<circle cx="434" cy="242" r="2" fill="#1A96EF"/>
<circle cx="450" cy="242" r="2" fill="#1A96EF"/>
<circle cx="466" cy="242" r="2" fill="#1A96EF"/>
<circle cx="482" cy="242" r="2" fill="#1A96EF"/>
<circle cx="498" cy="242" r="2" fill="#1A96EF"/>
<circle cx="514" cy="242" r="2" fill="#1A96EF"/>
<circle cx="530" cy="242" r="2" fill="#1A96EF"/>
<circle cx="2" cy="258" r="2" fill="#1A96EF"/>
<circle cx="18" cy="258" r="2" fill="#1A96EF"/>
<circle cx="34" cy="258" r="2" fill="#1A96EF"/>
<circle cx="50" cy="258" r="2" fill="#1A96EF"/>
<circle cx="66" cy="258" r="2" fill="#1A96EF"/>
<circle cx="82" cy="258" r="2" fill="#1A96EF"/>
<circle cx="98" cy="258" r="2" fill="#1A96EF"/>
<circle cx="114" cy="258" r="2" fill="#1A96EF"/>
<circle cx="130" cy="258" r="2" fill="#1A96EF"/>
<circle cx="146" cy="258" r="2" fill="#1A96EF"/>
<circle cx="162" cy="258" r="2" fill="#1A96EF"/>
<circle cx="178" cy="258" r="2" fill="#1A96EF"/>
<circle cx="194" cy="258" r="2" fill="#1A96EF"/>
<circle cx="210" cy="258" r="2" fill="#1A96EF"/>
<circle cx="226" cy="258" r="2" fill="#1A96EF"/>
<circle cx="242" cy="258" r="2" fill="#1A96EF"/>
<circle cx="258" cy="258" r="2" fill="#1A96EF"/>
<circle cx="274" cy="258" r="2" fill="#1A96EF"/>
<circle cx="290" cy="258" r="2" fill="#1A96EF"/>
<circle cx="306" cy="258" r="2" fill="#1A96EF"/>
<circle cx="322" cy="258" r="2" fill="#1A96EF"/>
<circle cx="338" cy="258" r="2" fill="#1A96EF"/>
<circle cx="354" cy="258" r="2" fill="#1A96EF"/>
<circle cx="370" cy="258" r="2" fill="#1A96EF"/>
<circle cx="386" cy="258" r="2" fill="#1A96EF"/>
<circle cx="402" cy="258" r="2" fill="#1A96EF"/>
<circle cx="418" cy="258" r="2" fill="#1A96EF"/>
<circle cx="434" cy="258" r="2" fill="#1A96EF"/>
<circle cx="450" cy="258" r="2" fill="#1A96EF"/>
<circle cx="466" cy="258" r="2" fill="#1A96EF"/>
<circle cx="482" cy="258" r="2" fill="#1A96EF"/>
<circle cx="498" cy="258" r="2" fill="#1A96EF"/>
<circle cx="514" cy="258" r="2" fill="#1A96EF"/>
<circle cx="530" cy="258" r="2" fill="#1A96EF"/>
</svg>
