<svg width="80" height="80" viewBox="0 0 80 80" fill="none" xmlns="http://www.w3.org/2000/svg">
<circle cx="40" cy="40" r="40" fill="#F7F7F7"/>
<path d="M38.5173 34.6001C38.5173 37.023 36.5569 38.9835 34.134 38.9835C31.7111 38.9835 29.7507 37.023 29.7507 34.6001C29.7507 32.1773 31.7111 30.2168 34.134 30.2168C36.5569 30.2168 38.5173 32.1773 38.5173 34.6001ZM34.134 42.6835C35.3228 42.6835 36.4373 42.4078 37.4404 41.9501H37.654C40.1548 41.9501 42.184 43.9793 42.184 46.4801V47.8001C42.184 48.6005 41.5344 49.2501 40.734 49.2501H27.534C26.7336 49.2501 26.084 48.6005 26.084 47.8001V46.4801C26.084 43.9793 28.1132 41.9501 30.614 41.9501H30.8282C31.8338 42.4073 32.9441 42.6835 34.134 42.6835ZM50.984 35.3335C50.984 37.3484 49.3489 38.9835 47.334 38.9835C45.319 38.9835 43.684 37.3484 43.684 35.3335C43.684 33.3185 45.319 31.6835 47.334 31.6835C49.3489 31.6835 50.984 33.3185 50.984 35.3335ZM47.334 42.3168C48.1052 42.3168 48.8225 42.1676 49.4829 41.9501H49.534C51.9569 41.9501 53.9173 43.9106 53.9173 46.3335C53.9173 47.1338 53.2677 47.7835 52.4673 47.7835H45.1507V46.4801C45.1507 44.8734 44.6313 43.3956 43.7704 42.1823C44.2023 42.033 44.6586 41.9501 45.134 41.9501H45.1851C45.8455 42.1676 46.5628 42.3168 47.334 42.3168Z" stroke="#172A3F" stroke-width="1.5"/>
</svg>
