<svg width="80" height="80" viewBox="0 0 80 80" fill="none" xmlns="http://www.w3.org/2000/svg">
<circle cx="40" cy="40" r="40" fill="#F7F7F7"/>
<rect x="41.5508" y="38.3496" width="11.3" height="16.1" rx="1.25" stroke="#172A3F" stroke-width="1.5"/>
<mask id="path-3-inside-1" fill="white">
<ellipse cx="47.2023" cy="40.8" rx="0.8" ry="0.8"/>
</mask>
<path d="M47.0023 40.8C47.0023 40.6895 47.0919 40.6 47.2023 40.6V42.6C48.1965 42.6 49.0023 41.7941 49.0023 40.8H47.0023ZM47.2023 40.6C47.3128 40.6 47.4023 40.6895 47.4023 40.8H45.4023C45.4023 41.7941 46.2082 42.6 47.2023 42.6V40.6ZM47.4023 40.8C47.4023 40.9105 47.3128 41 47.2023 41V39C46.2082 39 45.4023 39.8059 45.4023 40.8H47.4023ZM47.2023 41C47.0919 41 47.0023 40.9105 47.0023 40.8H49.0023C49.0023 39.8059 48.1965 39 47.2023 39V41Z" fill="#172A3F" mask="url(#path-3-inside-1)"/>
<path d="M49.3331 34.7999V28.8667C49.3331 27.7621 48.4376 26.8667 47.3331 26.8667H31.0664C29.9618 26.8667 29.0664 27.7621 29.0664 28.8667V52.7334C29.0664 53.8379 29.9618 54.7334 31.0664 54.7334H38.0008" stroke="#172A3F" stroke-width="1.5"/>
<mask id="path-6-inside-2" fill="white">
<ellipse cx="39.5344" cy="29.8669" rx="0.799999" ry="0.8"/>
</mask>
<path d="M39.3344 29.8669C39.3344 29.7564 39.4239 29.6669 39.5344 29.6669V31.6669C40.5285 31.6669 41.3344 30.861 41.3344 29.8669H39.3344ZM39.5344 29.6669C39.6448 29.6669 39.7344 29.7564 39.7344 29.8669H37.7344C37.7344 30.861 38.5403 31.6669 39.5344 31.6669V29.6669ZM39.7344 29.8669C39.7344 29.9774 39.6448 30.0669 39.5344 30.0669V28.0669C38.5403 28.0669 37.7344 28.8728 37.7344 29.8669H39.7344ZM39.5344 30.0669C39.4239 30.0669 39.3344 29.9774 39.3344 29.8669H41.3344C41.3344 28.8728 40.5285 28.0669 39.5344 28.0669V30.0669Z" fill="#172A3F" mask="url(#path-6-inside-2)"/>
</svg>
