<svg width="81" height="81" viewBox="0 0 81 81" fill="none" xmlns="http://www.w3.org/2000/svg">
<path d="M36.3151 44.9403L48.1002 33.1552M48.1002 33.1552L59.0996 22.1558H64.3278C66.1096 22.1558 67.002 24.31 65.742 25.57L58.7426 32.5694C58.3675 32.9445 57.8588 33.1552 57.3284 33.1552H48.1002Z" stroke="#FF5C5C" stroke-width="2"/>
<path d="M59.2568 22.313V17.0848C59.2568 15.303 57.1026 14.4106 55.8426 15.6706L48.8432 22.67C48.4681 23.0451 48.2574 23.5538 48.2574 24.0842V33.3124" stroke="#FF5C5C" stroke-width="2"/>
<path d="M59.2753 38.3217C61.523 46.392 59.4739 55.4079 53.1277 61.7541C43.7551 71.1266 28.5592 71.1266 19.1866 61.7541C9.81399 52.3815 9.81399 37.1855 19.1866 27.8129C25.5327 21.4668 34.5487 19.4176 42.619 21.6654" stroke="#FF5C5C" stroke-width="2"/>
<path d="M37.8354 36.5067C35.1558 35.9663 32.2646 36.7349 30.1868 38.8127C26.889 42.1105 26.889 47.4572 30.1868 50.755C33.4846 54.0527 38.8313 54.0527 42.129 50.755C44.2068 48.6772 44.9755 45.786 44.435 43.1064" stroke="#FF5C5C" stroke-width="2"/>
<path d="M51.5041 38.8645C53.7688 44.7462 52.5292 51.6673 47.7853 56.4112C41.3634 62.8331 30.9513 62.8331 24.5294 56.4112C18.1074 49.9892 18.1074 39.5772 24.5294 33.1552C29.2732 28.4114 36.1943 27.1718 42.076 29.4364" stroke="#FF5C5C" stroke-width="2"/>
</svg>
