<svg width="49" height="65" viewBox="0 0 49 65" fill="none" xmlns="http://www.w3.org/2000/svg">
<path d="M30.4482 7.49805H41.4445V18.4943" stroke="#03CCBA" stroke-width="2" stroke-linecap="round" stroke-linejoin="round"/>
<path d="M5.83232 34.587C18.8235 30.0394 31.9192 20.4967 40.6148 8.54363" stroke="#03CCBA" stroke-width="2" stroke-linecap="round" stroke-linejoin="round"/>
<path d="M12.1429 48.6289H3C1.89543 48.6289 1 49.5243 1 50.6289V61.0289C1 62.1335 1.89543 63.0289 3 63.0289H47.5" stroke="#03CCBA" stroke-width="2" stroke-linecap="round" stroke-linejoin="round"/>
<path d="M23.2854 41.7715H14.1426C13.038 41.7715 12.1426 42.6669 12.1426 43.7715V63.0286" stroke="#03CCBA" stroke-width="2" stroke-linecap="round" stroke-linejoin="round"/>
<path d="M35.2861 34.9146H25.2861C24.1816 34.9146 23.2861 35.81 23.2861 36.9146V63.0288" stroke="#03CCBA" stroke-width="2" stroke-linecap="round" stroke-linejoin="round"/>
<path d="M36.4287 29.0576H47.0001C47.5524 29.0576 48.0001 29.5053 48.0001 30.0576V62.0576C48.0001 62.6099 47.5524 63.0576 47.0001 63.0576H36.4287C35.8764 63.0576 35.4287 62.6099 35.4287 62.0576V30.0576C35.4287 29.5053 35.8764 29.0576 36.4287 29.0576Z" stroke="#03CCBA" stroke-width="2" stroke-linecap="round" stroke-linejoin="round"/>
</svg>
