<svg width="98" height="20" viewBox="0 0 98 20" fill="none" xmlns="http://www.w3.org/2000/svg">
<path d="M5.10159 11.8029L3.42535 8.28548L3.27959 8.36364L3.42535 13.757V19.0723H0V1.9541H3.78975L7.79814 9.37979L9.91165 13.6007L9.98453 13.5225L9.83877 8.28548V1.9541H13.337V19.0723H9.25574L5.10159 11.8029Z" fill="white"/>
<path d="M27.1841 12.428C27.1841 13.4441 27.0384 14.3821 26.7469 15.242C26.4553 16.1018 26.0181 16.8053 25.435 17.4306C24.852 18.056 24.1961 18.525 23.3944 18.8376C22.5927 19.1503 21.7182 19.3066 20.6978 19.3066C19.6775 19.3066 18.803 19.1503 18.0013 18.8376C17.1996 18.525 16.5437 17.9778 15.9607 17.4306C15.3776 16.8053 14.9403 16.1018 14.6488 15.242C14.2844 14.3821 14.1387 13.4441 14.1387 12.428C14.1387 11.4118 14.2844 10.4738 14.576 9.61398C14.8675 8.75415 15.3047 8.05065 15.8878 7.42532C16.4708 6.79998 17.1267 6.33098 17.9284 6.01832C18.7301 5.70565 19.6047 5.54932 20.625 5.54932C21.6453 5.54932 22.5927 5.70565 23.3215 6.01832C24.1232 6.33098 24.7791 6.87815 25.3621 7.42532C25.9452 8.05065 26.3825 8.75415 26.674 9.61398C27.1113 10.4738 27.1841 12.428 27.1841 12.428ZM18.5115 15.5546C18.9487 16.1018 19.6775 16.4145 20.625 16.4145C21.5724 16.4145 22.3012 16.1018 22.7385 15.5546C23.1758 14.9293 23.4673 13.9131 23.4673 12.428C23.4673 10.9428 23.2486 9.92665 22.7385 9.30131C22.3012 8.75415 21.5724 8.44148 20.625 8.44148C19.6775 8.44148 18.9487 8.75415 18.5115 9.30131C18.0742 9.92665 17.7827 10.9428 17.7827 12.428C17.7827 13.9131 18.0742 14.9293 18.5115 15.5546Z" fill="white"/>
<path d="M26.8203 8.44195L26.8932 6.17523L28.8609 5.78441L29.9541 2.26709L32.5049 2.57974V5.78441H36.6591L36.8777 8.36378L32.5049 8.7546V14.5386C32.5049 15.2421 32.6507 15.7111 32.9422 15.9456C33.2337 16.1801 33.7439 16.3364 34.3269 16.3364C34.6184 16.3364 34.9828 16.3364 35.2744 16.2582C35.5659 16.1801 36.0032 16.1019 36.5133 15.9456L37.3879 18.2123C36.9506 18.6031 36.3676 18.9158 35.6388 19.1502C34.91 19.3847 34.254 19.4629 33.5253 19.4629C31.9948 19.4629 30.7558 19.0721 29.9541 18.2904C29.1525 17.5088 28.7152 16.2582 28.7152 14.4605V8.91092L26.8203 8.44195Z" fill="white"/>
<path d="M38.4809 0.547204C38.8453 0.156344 39.4283 0 40.0842 0C40.813 0 41.3232 0.156344 41.6876 0.547204C42.052 0.938064 42.1978 1.4071 42.1978 2.03247C42.1978 2.65785 42.052 3.12688 41.6876 3.51774C41.3232 3.9086 40.7402 4.06494 40.0842 4.06494C39.3554 4.06494 38.8453 3.9086 38.4809 3.51774C38.1165 3.12688 37.9707 2.65785 37.9707 2.03247C37.9707 1.48527 38.1165 0.938064 38.4809 0.547204Z" fill="white"/>
<path d="M38.2617 5.78369H41.9786V19.0718H39.5007L38.2617 17.9775V5.78369Z" fill="white"/>
<path d="M55.3153 5.55018C54.5136 5.23754 53.7848 5.00305 52.9831 4.84673C52.2543 4.6904 51.5255 4.61224 50.7239 4.61224C50.2137 4.61224 49.7035 4.61224 49.3391 4.6904C48.9747 4.76857 48.6832 4.92489 48.4646 5.08121C48.1731 5.3157 48.0273 5.70651 48.0273 6.17548C48.0273 6.64445 48.1731 6.9571 48.3917 7.19158C48.6832 7.50423 49.2663 7.73872 49.9951 7.89504L52.4001 8.44217C53.1289 8.5985 53.8577 8.83298 54.5136 9.06747C55.1695 9.30195 55.7526 9.77093 56.1898 10.2399C56.5542 10.6307 56.8458 11.0215 57.0644 11.5686C57.283 12.1158 57.4288 12.7411 57.4288 13.5227C57.4288 14.617 57.283 15.4767 56.9186 16.1802C56.5542 16.8837 56.0441 17.4308 55.4611 17.8216C54.8051 18.2906 54.0035 18.6814 53.1289 18.9159C52.2543 19.1504 51.3069 19.2285 50.2866 19.2285C49.5578 19.2285 48.9747 19.2285 48.3917 19.1504C47.8815 19.0722 47.3714 18.994 46.8612 18.9159C46.4239 18.7595 45.9138 18.6032 45.5494 18.4469C45.1121 18.2906 44.6748 18.0561 44.2376 17.7434L45.4765 14.8514C45.9138 15.0859 46.4239 15.2423 46.7883 15.3986C47.1527 15.5549 47.59 15.6331 47.9544 15.7112C48.3188 15.7894 48.6832 15.8676 49.0476 15.8676C49.412 15.8676 49.8493 15.9457 50.2137 15.9457C50.8696 15.9457 51.4527 15.8676 51.8171 15.7894C52.2543 15.7112 52.6187 15.5549 52.8374 15.3204C53.2018 15.0078 53.4204 14.5388 53.4204 13.9917C53.4204 13.679 53.3475 13.4445 53.2747 13.21C53.2018 13.0537 53.056 12.8974 52.9103 12.7411C52.473 12.4284 51.8171 12.1158 50.9425 11.9595L48.2459 11.4123C47.5171 11.256 46.9341 11.0215 46.3511 10.7089C45.8409 10.3962 45.3308 10.0054 44.9664 9.45828C44.6748 9.14563 44.5291 8.67666 44.3104 8.28585C44.1647 7.81688 44.0918 7.34791 44.0918 6.80077C44.0918 5.94099 44.2376 5.15937 44.5291 4.53408C44.8206 3.90878 45.185 3.43981 45.6952 3.049C46.2782 2.58003 47.007 2.18922 47.8087 1.95474C48.6832 1.72025 49.5578 1.64209 50.5781 1.64209C51.7442 1.64209 52.7645 1.72025 53.6391 1.95474C54.5136 2.18922 55.3882 2.50187 56.1898 2.97084L55.3153 5.55018Z" fill="white"/>
<path d="M57.7934 12.4282C57.7934 10.1615 58.3035 8.44189 59.3967 7.26944C60.4899 6.09699 62.0933 5.47168 64.2797 5.47168C65.2271 5.47168 66.0288 5.62801 66.7576 5.8625C67.4864 6.09699 68.1423 6.56597 68.6525 7.11311C69.1626 7.66026 69.5999 8.36373 69.8914 9.22352C70.1829 10.0833 70.3287 11.0213 70.3287 12.1937C70.3287 12.4282 70.3287 12.7409 70.2558 13.0535C70.1829 13.3662 70.1829 13.6788 70.1101 13.9915H63.478L61.5102 13.8352C61.5831 14.8513 61.8746 15.4766 62.3848 15.8674C62.895 16.2582 63.6238 16.4146 64.6441 16.4146C65.0085 16.4146 65.3729 16.4146 65.6644 16.4146C65.9559 16.4146 66.2474 16.3364 66.539 16.3364C66.8305 16.3364 67.122 16.2582 67.4864 16.1801C67.7779 16.1019 68.1423 16.0237 68.5796 15.9456L69.3084 18.3686C68.6525 18.6813 67.9237 18.9939 67.0491 19.1503C66.1746 19.3066 65.3 19.3848 64.3526 19.3848C63.2594 19.3848 62.239 19.2284 61.4374 18.9158C60.5628 18.6031 59.9069 18.1342 59.3239 17.5088C58.8137 16.8835 58.3764 16.1801 58.0849 15.3203C57.8663 14.4605 57.7205 13.4443 57.7934 12.4282ZM66.2474 9.0672C65.883 8.59822 65.2271 8.36373 64.3526 8.36373C63.478 8.36373 62.7492 8.59822 62.3119 8.98903C61.8746 9.37985 61.656 10.1615 61.5102 11.2558H66.8305C66.7576 10.3178 66.539 9.53618 66.2474 9.0672Z" fill="white"/>
<path d="M74.1192 5.70616L75.0666 6.6441L77.836 5.47168H77.9818C80.0224 5.47168 81.48 5.94065 82.4275 6.95675C83.3749 7.97285 83.8122 9.45792 83.8122 11.4901V19.0718H81.1885L80.0224 17.9775V11.3338C80.0224 10.2395 79.8767 9.53608 79.5123 9.14527C79.1479 8.75446 78.4919 8.51998 77.6174 8.51998C77.1072 8.51998 76.6699 8.59814 76.3055 8.6763C75.9411 8.83262 75.5767 8.98895 75.2852 9.30159V19.0718H71.5684V6.33146L74.1192 5.70616Z" fill="white"/>
<path d="M97.2943 18.8376L94.7435 19.3066L93.869 18.2904L90.8809 19.4629H90.6623C89.5691 19.4629 88.6217 19.3066 87.82 18.9939C87.0183 18.6813 86.4353 18.1341 85.9251 17.587C85.4878 16.9617 85.1234 16.2582 84.9048 15.3984C84.6862 14.5386 84.6133 13.6006 84.6133 12.5845C84.6133 10.3959 85.1234 8.67634 86.1438 7.42573C87.1641 6.17512 88.7674 5.62797 90.8081 5.62797C91.3182 5.62797 91.7555 5.70614 92.1928 5.7843C92.63 5.86246 93.0673 6.01879 93.5046 6.17512V1.56348H97.2215L97.2943 18.8376ZM93.5775 8.91083C93.2131 8.75451 92.7758 8.67634 92.4114 8.59818C92.047 8.52002 91.6097 8.52002 91.1724 8.52002C90.7352 8.52002 90.2979 8.59818 89.9335 8.67634C89.5691 8.83267 89.2776 8.989 89.0589 9.30165C88.8403 9.6143 88.6217 10.0051 88.5488 10.4741C88.403 10.9431 88.403 11.6466 88.403 12.4282C88.403 13.0535 88.403 13.6006 88.4759 14.0696C88.5488 14.5386 88.6945 14.9294 88.9132 15.3202C89.1318 15.6329 89.4233 15.9455 89.7877 16.1019C90.1521 16.2582 90.6623 16.3364 91.2453 16.3364C92.1928 16.3364 92.9216 16.18 93.6504 15.7892L93.5775 8.91083Z" fill="white"/>
</svg>
