<svg width="124" height="33" viewBox="0 0 124 33" fill="none" xmlns="http://www.w3.org/2000/svg">
<path d="M45.5705 16.1131L44.1445 13.3027L44.0205 13.3652L44.1445 17.6744V21.9211H41.2305V8.24414H44.4545L47.8645 14.1771L49.6625 17.5495L49.7245 17.487L49.6005 13.3027V8.24414H52.5766V21.9211H49.1045L45.5705 16.1131Z" fill="#B5BBC2"/>
<path d="M64.3569 16.6129C64.3569 17.4248 64.2329 18.1742 63.9849 18.8612C63.7369 19.5482 63.3649 20.1102 62.8689 20.6099C62.3729 21.1095 61.8149 21.4842 61.1328 21.734C60.4508 21.9838 59.7068 22.1087 58.8388 22.1087C57.9708 22.1087 57.2268 21.9838 56.5448 21.734C55.8628 21.4842 55.3048 21.047 54.8088 20.6099C54.3128 20.1102 53.9408 19.5482 53.6928 18.8612C53.3828 18.1742 53.2588 17.4248 53.2588 16.6129C53.2588 15.8011 53.3828 15.0516 53.6308 14.3647C53.8788 13.6777 54.2508 13.1156 54.7468 12.616C55.2428 12.1164 55.8008 11.7417 56.4828 11.4919C57.1648 11.2421 57.9088 11.1172 58.7768 11.1172C59.6448 11.1172 60.4508 11.2421 61.0708 11.4919C61.7529 11.7417 62.3109 12.1789 62.8069 12.616C63.3029 13.1156 63.6749 13.6777 63.9229 14.3647C64.2949 15.0516 64.3569 16.6129 64.3569 16.6129ZM56.9788 19.111C57.3508 19.5482 57.9708 19.798 58.7768 19.798C59.5828 19.798 60.2028 19.5482 60.5748 19.111C60.9468 18.6114 61.1948 17.7995 61.1948 16.6129C61.1948 15.4264 61.0088 14.6145 60.5748 14.1149C60.2028 13.6777 59.5828 13.4279 58.7768 13.4279C57.9708 13.4279 57.3508 13.6777 56.9788 14.1149C56.6068 14.6145 56.3588 15.4264 56.3588 16.6129C56.3588 17.7995 56.6068 18.6114 56.9788 19.111Z" fill="#B5BBC2"/>
<path d="M64.0469 13.4269L64.1089 11.6158L65.7829 11.3035L66.7129 8.49316L68.8829 8.74297V11.3035H72.4169L72.6029 13.3644L68.8829 13.6767V18.2981C68.8829 18.8602 69.0069 19.2349 69.2549 19.4222C69.5029 19.6096 69.9369 19.7345 70.4329 19.7345C70.6809 19.7345 70.9909 19.7345 71.2389 19.672C71.4869 19.6096 71.8589 19.5471 72.2929 19.4222L73.037 21.2333C72.6649 21.5456 72.1689 21.7954 71.5489 21.9827C70.9289 22.1701 70.3709 22.2326 69.7509 22.2326C68.4489 22.2326 67.3949 21.9203 66.7129 21.2958C66.0309 20.6713 65.6589 19.672 65.6589 18.2356V13.8016L64.0469 13.4269Z" fill="#B5BBC2"/>
<path d="M73.9662 7.11978C74.2762 6.80752 74.7722 6.68262 75.3302 6.68262C75.9502 6.68262 76.3842 6.80752 76.6942 7.11978C77.0042 7.43204 77.1282 7.80675 77.1282 8.30636C77.1282 8.80598 77.0042 9.18069 76.6942 9.49295C76.3842 9.80521 75.8882 9.93011 75.3302 9.93011C74.7102 9.93011 74.2762 9.80521 73.9662 9.49295C73.6562 9.18069 73.5322 8.80598 73.5322 8.30636C73.5322 7.8692 73.6562 7.43204 73.9662 7.11978Z" fill="#B5BBC2"/>
<path d="M73.7812 11.3037H76.9433V21.9205H74.8353L73.7812 21.0462V11.3037Z" fill="#B5BBC2"/>
<path d="M88.2893 11.1177C87.6073 10.8679 86.9873 10.6805 86.3053 10.5556C85.6853 10.4307 85.0653 10.3683 84.3832 10.3683C83.9492 10.3683 83.5152 10.3683 83.2052 10.4307C82.8952 10.4932 82.6472 10.6181 82.4612 10.743C82.2132 10.9303 82.0892 11.2426 82.0892 11.6173C82.0892 11.992 82.2132 12.2418 82.3992 12.4292C82.6472 12.679 83.1432 12.8664 83.7632 12.9913L85.8093 13.4284C86.4293 13.5533 87.0493 13.7407 87.6073 13.928C88.1653 14.1154 88.6613 14.4901 89.0333 14.8648C89.3433 15.1771 89.5913 15.4893 89.7773 15.9265C89.9633 16.3637 90.0873 16.8633 90.0873 17.4878C90.0873 18.3621 89.9633 19.0491 89.6533 19.6111C89.3433 20.1732 88.9093 20.6104 88.4133 20.9226C87.8553 21.2973 87.1733 21.6096 86.4293 21.797C85.6853 21.9843 84.8793 22.0468 84.0112 22.0468C83.3912 22.0468 82.8952 22.0468 82.3992 21.9843C81.9652 21.9219 81.5312 21.8594 81.0972 21.797C80.7252 21.672 80.2912 21.5471 79.9812 21.4222C79.6092 21.2973 79.2372 21.11 78.8652 20.8602L79.9192 18.5495C80.2912 18.7368 80.7252 18.8617 81.0352 18.9866C81.3452 19.1115 81.7172 19.174 82.0272 19.2364C82.3372 19.2989 82.6472 19.3613 82.9572 19.3613C83.2672 19.3613 83.6392 19.4238 83.9492 19.4238C84.5073 19.4238 85.0033 19.3613 85.3133 19.2989C85.6853 19.2364 85.9953 19.1115 86.1813 18.9242C86.4913 18.6744 86.6773 18.2997 86.6773 17.8625C86.6773 17.6127 86.6153 17.4253 86.5533 17.238C86.4913 17.1131 86.3673 16.9882 86.2433 16.8633C85.8713 16.6135 85.3133 16.3637 84.5693 16.2387L82.2752 15.8016C81.6552 15.6767 81.1592 15.4893 80.6632 15.2395C80.2292 14.9897 79.7952 14.6775 79.4852 14.2403C79.2372 13.9905 79.1132 13.6158 78.9272 13.3035C78.8032 12.9288 78.7412 12.5541 78.7412 12.1169C78.7412 11.43 78.8652 10.8054 79.1132 10.3058C79.3612 9.80622 79.6712 9.43151 80.1052 9.11925C80.6012 8.74454 81.2212 8.43228 81.9032 8.24492C82.6472 8.05757 83.3912 7.99512 84.2593 7.99512C85.2513 7.99512 86.1193 8.05757 86.8633 8.24492C87.6073 8.43228 88.3513 8.68209 89.0333 9.0568L88.2893 11.1177Z" fill="#B5BBC2"/>
<path d="M90.396 16.6119C90.396 14.8008 90.83 13.4269 91.76 12.4901C92.69 11.5533 94.054 11.0537 95.9141 11.0537C96.7201 11.0537 97.4021 11.1786 98.0221 11.366C98.6421 11.5533 99.2001 11.928 99.6341 12.3652C100.068 12.8024 100.44 13.3644 100.688 14.0514C100.936 14.7384 101.06 15.4878 101.06 16.4246C101.06 16.6119 101.06 16.8617 100.998 17.1115C100.936 17.3613 100.936 17.6111 100.874 17.861H95.2321L93.558 17.736C93.62 18.5479 93.868 19.0475 94.302 19.3598C94.7361 19.6721 95.3561 19.797 96.2241 19.797C96.5341 19.797 96.8441 19.797 97.0921 19.797C97.3401 19.797 97.5881 19.7345 97.8361 19.7345C98.0841 19.7345 98.3321 19.6721 98.6421 19.6096C98.8901 19.5471 99.2001 19.4847 99.5721 19.4222L100.192 21.3582C99.6341 21.6081 99.0141 21.8579 98.2701 21.9828C97.5261 22.1077 96.7821 22.1701 95.9761 22.1701C95.0461 22.1701 94.178 22.0452 93.496 21.7954C92.752 21.5456 92.194 21.1709 91.698 20.6713C91.264 20.1717 90.892 19.6096 90.644 18.9226C90.458 18.2357 90.334 17.4238 90.396 16.6119ZM97.5881 13.9265C97.2781 13.5518 96.7201 13.3644 95.9761 13.3644C95.2321 13.3644 94.612 13.5518 94.24 13.864C93.868 14.1763 93.682 14.8008 93.558 15.6751H98.0841C98.0221 14.9257 97.8361 14.3012 97.5881 13.9265Z" fill="#B5BBC2"/>
<path d="M104.284 11.2411L105.09 11.9905L107.446 11.0537H107.57C109.306 11.0537 110.546 11.4284 111.352 12.2403C112.158 13.0522 112.53 14.2387 112.53 15.8625V21.9203H110.298L109.306 21.046V15.7376C109.306 14.8633 109.182 14.3012 108.872 13.9889C108.562 13.6767 108.004 13.4893 107.26 13.4893C106.826 13.4893 106.454 13.5518 106.144 13.6142C105.834 13.7391 105.524 13.864 105.276 14.1138V21.9203H102.114V11.7407L104.284 11.2411Z" fill="#B5BBC2"/>
<path d="M124.001 21.7335L121.831 22.1082L121.087 21.2963L118.545 22.2331H118.359C117.429 22.2331 116.623 22.1082 115.941 21.8584C115.259 21.6086 114.763 21.1714 114.329 20.7342C113.957 20.2346 113.647 19.6726 113.461 18.9856C113.275 18.2986 113.213 17.5492 113.213 16.7373C113.213 14.9887 113.647 13.6147 114.515 12.6155C115.383 11.6163 116.747 11.1791 118.483 11.1791C118.917 11.1791 119.289 11.2416 119.661 11.304C120.033 11.3665 120.405 11.4914 120.777 11.6163V7.93164H123.939L124.001 21.7335ZM120.839 13.8021C120.529 13.6772 120.157 13.6147 119.847 13.5523C119.537 13.4898 119.165 13.4898 118.793 13.4898C118.421 13.4898 118.049 13.5523 117.739 13.6147C117.429 13.7397 117.181 13.8646 116.995 14.1144C116.809 14.3642 116.623 14.6764 116.561 15.0511C116.437 15.4259 116.437 15.9879 116.437 16.6124C116.437 17.112 116.437 17.5492 116.499 17.9239C116.561 18.2986 116.685 18.6109 116.871 18.9231C117.057 19.173 117.305 19.4228 117.615 19.5477C117.925 19.6726 118.359 19.735 118.855 19.735C119.661 19.735 120.281 19.6101 120.901 19.2979L120.839 13.8021Z" fill="#B5BBC2"/>
<path d="M31.1873 23.7313L23.4372 31.6002L16.6172 22.2324L31.1873 23.7313Z" fill="#CDD1D6"/>
<path d="M28.2723 26.7289L28.4583 30.5385L16.7402 22.2324L28.2723 26.7289Z" fill="#B5BBC2"/>
<path d="M17.7945 31.7249L7.19238 28.7897L11.9044 18.2354L17.7945 31.7249Z" fill="#CDD1D6"/>
<path d="M13.7636 30.6008L10.4775 32.5368L11.9036 18.2354L13.7636 30.6008Z" fill="#B5BBC2"/>
<path d="M4.27833 23.9195L1.6123 13.1154L13.0824 12.0537L4.27833 23.9195Z" fill="#CDD1D6"/>
<path d="M3.28603 19.7977L0 17.9242L13.0821 12.0537L3.28603 19.7977Z" fill="#B5BBC2"/>
<path d="M4.40137 8.24504L12.3994 0.563477L18.9715 10.1186L4.40137 8.24504Z" fill="#CDD1D6"/>
<path d="M7.43945 5.30858V1.49902L18.9715 10.1174L7.43945 5.30858Z" fill="#B5BBC2"/>
<path d="M18.042 0.623047L28.5821 3.87054L23.56 14.3L18.042 0.623047Z" fill="#CDD1D6"/>
<path d="M22.0117 1.8111L25.3597 0L23.5617 14.3015L22.0117 1.8111Z" fill="#B5BBC2"/>
<path d="M31.3104 8.80762L33.6664 19.6118L22.1963 20.3612L31.3104 8.80762Z" fill="#CDD1D6"/>
<path d="M32.2404 12.8672L35.4644 14.8656L22.1963 20.3614L32.2404 12.8672Z" fill="#B5BBC2"/>
</svg>
