<svg width="143" height="32" viewBox="0 0 143 32" fill="none" xmlns="http://www.w3.org/2000/svg">
<g clip-path="url(#clip0)">
<path d="M9.83996 0L15.04 6.72H14.32L13.84 7.44L8.95996 0.48L9.27996 0H9.83996Z" fill="#00B4F3"/>
<path d="M29.7594 0.560078L25.5194 7.20008L25.2794 6.72008H24.3994L28.7994 0.0800781H29.4394L29.7594 0.560078Z" fill="#02B1F3"/>
<path d="M38.3195 16.4795H30.4795L30.7195 15.9995L30.4795 15.5195H38.3995L38.6395 15.9995L38.3195 16.4795Z" fill="#02B1F3"/>
<path d="M24.9594 24.96L28.9594 31.44L28.6394 32H27.9194L24.3994 25.76L24.9594 24.96Z" fill="#02B1F3"/>
<path d="M19.6794 16.56L15.5194 23.28L15.1994 22.72H14.3994L18.6394 16H19.3594L19.6794 16.56Z" fill="#00B4F3"/>
<path d="M0.32 15.4395L8.4 15.5195L8.08 15.9995L8.32 16.6395H0.4L0 15.9995L0.32 15.4395Z" fill="#02B1F3"/>
<path d="M9.2002 0L14.3202 6.72H25.2002L29.4402 0H9.2002Z" fill="#00B4F3"/>
<path d="M30.7202 16H38.7202L29.4402 0L25.2002 6.72L30.7202 16Z" fill="url(#paint0_linear)"/>
<path d="M30.7197 16H38.7197L28.6397 32L24.7197 25.28L30.7197 16Z" fill="url(#paint1_linear)"/>
<path d="M15.1201 22.72L21.0401 32H28.6401L19.3601 16L15.1201 22.72Z" fill="#47D4F8"/>
<path d="M0 16L4.24 22.72H15.12L19.36 16H0Z" fill="#00B4F3"/>
<path d="M14.32 6.72L8.08 16H0L9.2 0L14.32 6.72Z" fill="url(#paint2_linear)"/>
<path d="M13.9998 -0.320312H-0.160156V16.2397H13.9998V-0.320312Z" fill="url(#paint3_linear)"/>
<path d="M54.48 10.4801C53.76 10.2401 52.24 10.0001 50.96 10.0001C48.64 10.0001 47.36 10.4801 47.36 12.2401C47.36 13.4401 48 14.0801 50.64 14.3201C53.92 14.6401 55.36 15.8401 55.36 18.4001C55.36 21.5201 53.28 22.6401 49.52 22.6401C48.08 22.6401 46.48 22.4001 45.36 22.0001L45.84 20.2401C46.72 20.5601 48.24 20.7201 49.44 20.7201C51.76 20.7201 53.12 20.2401 53.12 18.4801C53.12 17.2801 52.48 16.4001 49.76 16.1601C46.56 15.9201 45.04 14.9601 45.04 12.4001C45.04 9.28008 47.12 8.08008 50.8 8.08008C52.16 8.08008 53.76 8.32008 54.8 8.64008L54.48 10.4801Z" fill="#00B4F3"/>
<path d="M60.3196 13.9195V18.8795C60.3196 20.3195 60.7196 20.9595 61.9996 20.9595C62.6396 20.9595 63.2796 20.8795 63.8396 20.7195L64.1596 22.2395C63.5196 22.4795 62.4796 22.6395 61.6796 22.6395C59.4396 22.6395 58.3996 21.9995 58.3996 18.9595V13.9195H56.6396V12.2395H58.3996V10.3195L60.3196 9.51953V12.2395H63.8396V13.9195H60.3196Z" fill="#00B4F3"/>
<path d="M74.1597 21.9202C72.9597 22.4002 71.1997 22.7202 69.8397 22.7202C66.7997 22.7202 65.6797 22.0002 65.6797 19.3602C65.6797 16.4802 67.3597 16.0002 69.6797 16.0002C70.6397 16.0002 71.4397 16.0802 72.3997 16.3202C72.3997 14.2402 71.8397 13.7602 69.6797 13.7602C68.6397 13.7602 67.5197 13.9202 66.7197 14.2402L66.3197 12.6402C67.1997 12.4002 68.5597 12.1602 69.9997 12.1602C72.9597 12.1602 74.3197 13.0402 74.3197 16.0802V21.9202H74.1597ZM72.3197 17.6802C71.6797 17.5202 70.7997 17.4402 69.9997 17.4402C68.3197 17.4402 67.6797 17.6002 67.6797 19.2002C67.6797 20.8802 68.1597 21.2002 69.9197 21.2002C70.7197 21.2002 71.5997 21.0402 72.3197 20.8002V17.6802Z" fill="#00B4F3"/>
<path d="M77.04 12.2399H78.88V12.9599C79.28 12.4799 80.16 11.9199 81.6 11.9199C81.92 11.9199 82.32 11.9199 82.64 11.9999V13.8399C82.32 13.7599 81.84 13.7599 81.44 13.7599C80.08 13.7599 78.88 14.1599 78.88 14.9599V22.3999H77.04V12.2399Z" fill="#00B4F3"/>
<path d="M86.64 13.9195V18.8795C86.64 20.3195 87.04 20.9595 88.32 20.9595C88.96 20.9595 89.6 20.8795 90.16 20.7195L90.48 22.2395C89.84 22.4795 88.8 22.6395 88 22.6395C85.76 22.6395 84.72 21.9995 84.72 18.9595V13.9195H82.96V12.2395H84.72V10.3195L86.64 9.51953V12.2395H90.16V13.9195H86.64Z" fill="#00B4F3"/>
<path d="M92.3203 12.72C93.4403 12.24 95.2003 12 96.5603 12C99.7603 12 101.28 13.2 101.28 17.28C101.28 21.44 99.7603 22.64 96.8003 22.64C95.5203 22.64 94.7203 22.32 94.2403 21.92V26.16H92.4003V12.72H92.3203ZM94.1603 19.84C94.1603 20.64 95.2003 21.04 96.5603 21.04C98.6403 21.04 99.2803 20.24 99.2803 17.36C99.2803 14.24 98.6403 13.68 96.5603 13.68C95.7603 13.68 94.8003 13.76 94.1603 14V19.84Z" fill="#00B4F3"/>
<path d="M112.08 21.9202C110.88 22.4002 109.12 22.7202 107.76 22.7202C104.72 22.7202 103.6 22.0002 103.6 19.3602C103.6 16.4802 105.28 16.0002 107.6 16.0002C108.56 16.0002 109.36 16.0802 110.32 16.3202C110.32 14.2402 109.76 13.7602 107.6 13.7602C106.56 13.7602 105.44 13.9202 104.64 14.2402L104.24 12.6402C105.12 12.4002 106.48 12.1602 107.92 12.1602C110.88 12.1602 112.24 13.0402 112.24 16.0802V21.9202H112.08ZM110.24 17.6802C109.6 17.5202 108.72 17.4402 107.92 17.4402C106.24 17.4402 105.6 17.6002 105.6 19.2002C105.6 20.8802 106.08 21.2002 107.84 21.2002C108.64 21.2002 109.52 21.0402 110.24 20.8002V17.6802Z" fill="#00B4F3"/>
<path d="M122.56 22.1601C121.76 22.4801 120.48 22.7201 119.6 22.7201C116.48 22.7201 114.64 21.5201 114.64 17.3601C114.64 13.2001 116.48 12.0801 119.6 12.0801C120.48 12.0801 121.84 12.3201 122.56 12.5601L122.08 14.2401C121.44 13.9201 120.48 13.7601 119.68 13.7601C117.6 13.7601 116.64 14.2401 116.64 17.3601C116.64 20.3201 117.6 21.0401 119.68 21.0401C120.56 21.0401 121.44 20.8001 122.08 20.5601L122.56 22.1601Z" fill="#00B4F3"/>
<path d="M130.88 22.4C128.4 19.12 126.8 17.28 126.24 17.04V22.4H124.4V8H126.24V17.04C126.88 16.56 128.4 14.96 130.56 12.24H132.88C130.72 14.88 129.2 16.4 128.64 16.8C129.2 17.12 130.8 18.96 133.2 22.32H130.88V22.4Z" fill="#00B4F3"/>
</g>
<defs>
<linearGradient id="paint0_linear" x1="31.9602" y1="0" x2="31.9602" y2="16" gradientUnits="userSpaceOnUse">
<stop stop-color="#0280DD"/>
<stop offset="1" stop-color="#02B1F3"/>
</linearGradient>
<linearGradient id="paint1_linear" x1="38.7197" y1="24" x2="24.7197" y2="24" gradientUnits="userSpaceOnUse">
<stop stop-color="#0280DD"/>
<stop offset="1" stop-color="#02B1F3"/>
</linearGradient>
<linearGradient id="paint2_linear" x1="14.32" y1="8" x2="0" y2="8" gradientUnits="userSpaceOnUse">
<stop stop-color="#0280DD"/>
<stop offset="1" stop-color="#02B1F3"/>
</linearGradient>
<linearGradient id="paint3_linear" x1="13.9817" y1="7.95969" x2="-0.178317" y2="7.95969" gradientUnits="userSpaceOnUse">
<stop stop-color="#0280DD"/>
<stop offset="1" stop-color="#02B1F3"/>
</linearGradient>
<clipPath id="clip0">
<rect width="142.4" height="32" fill="white"/>
</clipPath>
</defs>
</svg>
