<svg width="121" height="32" viewBox="0 0 121 32" fill="none" xmlns="http://www.w3.org/2000/svg">
<path d="M44.4967 15.9197L43.1061 13.1683L42.9852 13.2294L43.1061 17.4482V21.6058H40.2646V8.21582H43.4084L46.7336 14.0243L48.4868 17.3259L48.5473 17.2648L48.4264 13.1683V8.21582H51.3283V21.6058H47.9427L44.4967 15.9197Z" fill="#222222"/>
<path d="M62.815 16.4088C62.815 17.2036 62.6941 17.9373 62.4523 18.6099C62.2104 19.2824 61.8477 19.8327 61.364 20.3218C60.8804 20.811 60.3363 21.1778 59.6712 21.4224C59.0062 21.667 58.2807 21.7892 57.4343 21.7892C56.5879 21.7892 55.8624 21.667 55.1974 21.4224C54.5324 21.1778 53.9883 20.7498 53.5046 20.3218C53.0209 19.8327 52.6582 19.2824 52.4164 18.6099C52.1141 17.9373 51.9932 17.2036 51.9932 16.4088C51.9932 15.6139 52.1141 14.8802 52.3559 14.2077C52.5977 13.5351 52.9605 12.9849 53.4441 12.4957C53.9278 12.0066 54.4719 11.6397 55.1369 11.3952C55.802 11.1506 56.5275 11.0283 57.3739 11.0283C58.2203 11.0283 59.0062 11.1506 59.6108 11.3952C60.2758 11.6397 60.8199 12.0677 61.3036 12.4957C61.7872 12.9849 62.15 13.5351 62.3918 14.2077C62.7545 14.8802 62.815 16.4088 62.815 16.4088ZM55.6206 18.8545C55.9833 19.2824 56.5879 19.527 57.3739 19.527C58.1598 19.527 58.7644 19.2824 59.1271 18.8545C59.4899 18.3653 59.7317 17.5705 59.7317 16.4088C59.7317 15.2471 59.5503 14.4523 59.1271 13.9631C58.7644 13.5351 58.1598 13.2906 57.3739 13.2906C56.5879 13.2906 55.9833 13.5351 55.6206 13.9631C55.2579 14.4523 55.016 15.2471 55.016 16.4088C55.016 17.5705 55.2579 18.3653 55.6206 18.8545Z" fill="#222222"/>
<path d="M62.5127 13.2905L62.5732 11.5174L64.2055 11.2117L65.1124 8.46033L67.2283 8.70489V11.2117H70.6744L70.8558 13.2294L67.2283 13.5351V18.0596C67.2283 18.6098 67.3493 18.9767 67.5911 19.1601C67.8329 19.3435 68.2561 19.4658 68.7398 19.4658C68.9816 19.4658 69.2839 19.4658 69.5257 19.4047C69.7676 19.3435 70.1303 19.2824 70.5535 19.1601L71.279 20.9332C70.9162 21.2389 70.4326 21.4835 69.828 21.6669C69.2234 21.8503 68.6793 21.9115 68.0747 21.9115C66.8052 21.9115 65.7774 21.6058 65.1124 20.9944C64.4473 20.3829 64.0846 19.4047 64.0846 17.9984V13.6574L62.5127 13.2905Z" fill="#222222"/>
<path d="M72.1859 7.11525C72.4882 6.80954 72.9718 6.68726 73.516 6.68726C74.1205 6.68726 74.5437 6.80954 74.846 7.11525C75.1483 7.42096 75.2692 7.78781 75.2692 8.27694C75.2692 8.76607 75.1483 9.13292 74.846 9.43863C74.5437 9.74434 74.0601 9.86662 73.516 9.86662C72.9114 9.86662 72.4882 9.74434 72.1859 9.43863C71.8836 9.13292 71.7627 8.76607 71.7627 8.27694C71.7627 7.84895 71.8836 7.42096 72.1859 7.11525Z" fill="#28B2F7"/>
<path d="M72.0049 11.2118H75.0882V21.6059H73.0327L72.0049 20.7499V11.2118Z" fill="#222222"/>
<path d="M86.1512 11.0283C85.4862 10.7837 84.8816 10.6003 84.2166 10.478C83.612 10.3557 83.0075 10.2946 82.3424 10.2946C81.9192 10.2946 81.496 10.2946 81.1937 10.3557C80.8915 10.4169 80.6496 10.5391 80.4683 10.6614C80.2264 10.8448 80.1055 11.1506 80.1055 11.5174C80.1055 11.8843 80.2264 12.1288 80.4078 12.3122C80.6496 12.5568 81.1333 12.7402 81.7379 12.8625L83.7329 13.2905C84.3375 13.4128 84.9421 13.5962 85.4862 13.7796C86.0303 13.9631 86.514 14.3299 86.8767 14.6968C87.179 15.0025 87.4208 15.3082 87.6022 15.7362C87.7836 16.1642 87.9045 16.6533 87.9045 17.2647C87.9045 18.1207 87.7836 18.7933 87.4813 19.3435C87.179 19.8938 86.7558 20.3218 86.2722 20.6275C85.728 20.9944 85.063 21.3001 84.3375 21.4835C83.612 21.6669 82.8261 21.7281 81.9797 21.7281C81.3751 21.7281 80.8915 21.7281 80.4078 21.6669C79.9846 21.6058 79.5614 21.5446 79.1382 21.4835C78.7755 21.3612 78.3523 21.2389 78.05 21.1166C77.6872 20.9944 77.3245 20.8109 76.9617 20.5664L77.9895 18.3041C78.3523 18.4876 78.7755 18.6098 79.0777 18.7321C79.38 18.8544 79.7428 18.9155 80.0451 18.9767C80.3473 19.0378 80.6496 19.099 80.9519 19.099C81.2542 19.099 81.6169 19.1601 81.9192 19.1601C82.4633 19.1601 82.947 19.099 83.2493 19.0378C83.612 18.9767 83.9143 18.8544 84.0957 18.671C84.398 18.4264 84.5794 18.0596 84.5794 17.6316C84.5794 17.387 84.5189 17.2036 84.4584 17.0202C84.398 16.8979 84.2771 16.7756 84.1562 16.6533C83.7934 16.4087 83.2493 16.1642 82.5238 16.0419L80.2869 15.6139C79.6823 15.4916 79.1987 15.3082 78.715 15.0636C78.2918 14.8191 77.8686 14.5133 77.5663 14.0854C77.3245 13.8408 77.2036 13.4739 77.0222 13.1682C76.9013 12.8014 76.8408 12.4345 76.8408 12.0065C76.8408 11.334 76.9617 10.7226 77.2036 10.2334C77.4454 9.7443 77.7477 9.37745 78.1709 9.07174C78.6545 8.70489 79.2591 8.39918 79.9241 8.21576C80.6496 8.03233 81.3751 7.97119 82.2215 7.97119C83.1888 7.97119 84.0352 8.03233 84.7607 8.21576C85.4862 8.39918 86.2117 8.64375 86.8767 9.0106L86.1512 11.0283Z" fill="#222222"/>
<path d="M88.2071 16.4088C88.2071 14.6357 88.6303 13.2905 89.5372 12.3734C90.444 11.4563 91.7741 10.9672 93.5878 10.9672C94.3738 10.9672 95.0388 11.0894 95.6434 11.2729C96.2479 11.4563 96.7921 11.8231 97.2153 12.2511C97.6385 12.6791 98.0012 13.2294 98.243 13.902C98.4849 14.5745 98.6058 15.3082 98.6058 16.2253C98.6058 16.4088 98.6058 16.6533 98.5453 16.8979C98.4849 17.1425 98.4849 17.387 98.4244 17.6316H92.9228L91.2904 17.5093C91.3509 18.3042 91.5927 18.7933 92.0159 19.099C92.4391 19.4047 93.0437 19.527 93.8901 19.527C94.1924 19.527 94.4947 19.527 94.7365 19.527C94.9783 19.527 95.2202 19.4658 95.462 19.4658C95.7038 19.4658 95.9457 19.4047 96.2479 19.3436C96.4898 19.2824 96.792 19.2213 97.1548 19.1601L97.7594 21.0555C97.2153 21.3001 96.6107 21.5447 95.8852 21.6669C95.1597 21.7892 94.4342 21.8504 93.6483 21.8504C92.7414 21.8504 91.895 21.7281 91.23 21.4835C90.5045 21.239 89.9604 20.8721 89.4767 20.383C89.0535 19.8938 88.6908 19.3436 88.449 18.671C88.2676 17.9985 88.1467 17.2036 88.2071 16.4088ZM95.2202 13.7797C94.9179 13.4128 94.3738 13.2294 93.6483 13.2294C92.9228 13.2294 92.3182 13.4128 91.9555 13.7185C91.5927 14.0242 91.4114 14.6357 91.2904 15.4916H95.7038C95.6434 14.7579 95.462 14.1465 95.2202 13.7797Z" fill="#222222"/>
<path d="M101.75 11.1506L102.536 11.8843L104.833 10.9672H104.954C106.647 10.9672 107.856 11.334 108.642 12.1289C109.428 12.9237 109.791 14.0854 109.791 15.6751V21.6058H107.614L106.647 20.7498V15.5528C106.647 14.6968 106.526 14.1465 106.224 13.8408C105.921 13.5351 105.377 13.3517 104.652 13.3517C104.229 13.3517 103.866 13.4128 103.564 13.474C103.261 13.5963 102.959 13.7185 102.717 13.9631V21.6058H99.6338V11.6397L101.75 11.1506Z" fill="#222222"/>
<path d="M120.976 21.4223L118.86 21.7892L118.134 20.9943L115.655 21.9115H115.474C114.567 21.9115 113.781 21.7892 113.116 21.5446C112.451 21.3001 111.967 20.8721 111.544 20.4441C111.182 19.9549 110.879 19.4047 110.698 18.7321C110.517 18.0595 110.456 17.3258 110.456 16.531C110.456 14.819 110.879 13.4739 111.726 12.4957C112.572 11.5174 113.902 11.0894 115.595 11.0894C116.018 11.0894 116.381 11.1505 116.744 11.2117C117.106 11.2728 117.469 11.3951 117.832 11.5174V7.91003H120.915L120.976 21.4223ZM117.892 13.6573C117.59 13.5351 117.227 13.4739 116.925 13.4128C116.623 13.3516 116.26 13.3516 115.897 13.3516C115.534 13.3516 115.172 13.4128 114.869 13.4739C114.567 13.5962 114.325 13.7185 114.144 13.9631C113.963 14.2076 113.781 14.5133 113.721 14.8802C113.6 15.247 113.6 15.7973 113.6 16.4087C113.6 16.8979 113.6 17.3258 113.66 17.6927C113.721 18.0595 113.842 18.3653 114.023 18.671C114.204 18.9155 114.446 19.1601 114.749 19.2824C115.051 19.4047 115.474 19.4658 115.958 19.4658C116.744 19.4658 117.348 19.3435 117.953 19.0378L117.892 13.6573Z" fill="#222222"/>
<path d="M30.4701 23.379L22.913 31.0829L16.2627 21.9116L30.4701 23.379Z" fill="url(#paint0_linear)"/>
<path d="M27.6288 26.3138L27.8102 30.0435L16.3838 21.9116L27.6288 26.3138Z" fill="url(#paint1_linear)"/>
<path d="M17.4114 31.2051L7.07324 28.3315L11.668 17.9985L17.4114 31.2051Z" fill="url(#paint2_linear)"/>
<path d="M13.4826 30.1046L10.2783 32L11.6688 17.9985L13.4826 30.1046Z" fill="url(#paint3_linear)"/>
<path d="M4.2315 23.5623L1.63184 12.9848L12.8164 11.9454L4.2315 23.5623Z" fill="url(#paint4_linear)"/>
<path d="M3.26478 19.527L0.0605469 17.6927L12.817 11.9454L3.26478 19.527Z" fill="url(#paint5_linear)"/>
<path d="M4.35352 8.21585L12.1525 0.695435L18.561 10.0501L4.35352 8.21585Z" fill="url(#paint6_linear)"/>
<path d="M7.31543 5.34219V1.61255L18.5605 10.0501L7.31543 5.34219Z" fill="url(#paint7_linear)"/>
<path d="M17.6533 0.756592L27.9311 3.93596L23.034 14.1466L17.6533 0.756592Z" fill="url(#paint8_linear)"/>
<path d="M21.5225 1.91825L24.7872 0.145142L23.0339 14.1466L21.5225 1.91825Z" fill="url(#paint9_linear)"/>
<path d="M30.5913 8.76611L32.8887 19.3436L21.7041 20.0773L30.5913 8.76611Z" fill="url(#paint10_linear)"/>
<path d="M31.4982 12.7404L34.6419 14.6969L21.7041 20.0774L31.4982 12.7404Z" fill="url(#paint11_linear)"/>
<defs>
<linearGradient id="paint0_linear" x1="17.115" y1="28.908" x2="21.088" y2="19.6227" gradientUnits="userSpaceOnUse">
<stop stop-color="#179BFF"/>
<stop offset="1" stop-color="#74D7E8"/>
</linearGradient>
<linearGradient id="paint1_linear" x1="23.5627" y1="24.2389" x2="20.9464" y2="30.3524" gradientUnits="userSpaceOnUse">
<stop stop-color="#179BFF"/>
<stop offset="1" stop-color="#74D7E8"/>
</linearGradient>
<linearGradient id="paint2_linear" x1="6.08189" y1="22.1552" x2="16.7263" y2="24.1196" gradientUnits="userSpaceOnUse">
<stop stop-color="#179BFF"/>
<stop offset="1" stop-color="#74D7E8"/>
</linearGradient>
<linearGradient id="paint3_linear" x1="13.2433" y1="25.4416" x2="6.40152" y2="25.3711" gradientUnits="userSpaceOnUse">
<stop stop-color="#179BFF"/>
<stop offset="1" stop-color="#74D7E8"/>
</linearGradient>
<linearGradient id="paint4_linear" x1="6.45684" y1="9.13588" x2="9.06904" y2="19.8159" gradientUnits="userSpaceOnUse">
<stop stop-color="#179BFF"/>
<stop offset="1" stop-color="#74D7E8"/>
</linearGradient>
<linearGradient id="paint5_linear" x1="7.15473" y1="17.0566" x2="6.3567" y2="10.2199" gradientUnits="userSpaceOnUse">
<stop stop-color="#179BFF"/>
<stop offset="1" stop-color="#74D7E8"/>
</linearGradient>
<linearGradient id="paint6_linear" x1="17.8803" y1="3.0387" x2="13.5763" y2="12.2098" gradientUnits="userSpaceOnUse">
<stop stop-color="#179BFF"/>
<stop offset="1" stop-color="#74D7E8"/>
</linearGradient>
<linearGradient id="paint7_linear" x1="11.4058" y1="7.55264" x2="14.4371" y2="1.51041" gradientUnits="userSpaceOnUse">
<stop stop-color="#179BFF"/>
<stop offset="1" stop-color="#74D7E8"/>
</linearGradient>
<linearGradient id="paint8_linear" x1="28.7074" y1="10.0742" x2="18.1027" y2="8.01009" gradientUnits="userSpaceOnUse">
<stop stop-color="#179BFF"/>
<stop offset="1" stop-color="#74D7E8"/>
</linearGradient>
<linearGradient id="paint9_linear" x1="21.6352" y1="6.59859" x2="28.4436" y2="6.68175" gradientUnits="userSpaceOnUse">
<stop stop-color="#179BFF"/>
<stop offset="1" stop-color="#74D7E8"/>
</linearGradient>
<linearGradient id="paint10_linear" x1="27.9937" y1="23.0938" x2="25.7958" y2="12.3183" gradientUnits="userSpaceOnUse">
<stop stop-color="#179BFF"/>
<stop offset="1" stop-color="#74D7E8"/>
</linearGradient>
<linearGradient id="paint11_linear" x1="27.5032" y1="15.1575" x2="28.1689" y2="22.0186" gradientUnits="userSpaceOnUse">
<stop stop-color="#179BFF"/>
<stop offset="1" stop-color="#74D7E8"/>
</linearGradient>
</defs>
</svg>
