<svg width="320" height="439" viewBox="0 0 320 439" fill="none" xmlns="http://www.w3.org/2000/svg">
<mask id="mask0" mask-type="alpha" maskUnits="userSpaceOnUse" x="-190" y="0" width="700" height="439">
<path d="M-190 0H510V438.952H-190V0Z" fill="url(#paint0_linear)"/>
</mask>
<g mask="url(#mask0)">
<path opacity="0.1" d="M110.786 106.931C-18.821 138.365 -4.14848 -21.6109 -93.4061 -21.6108C-140.103 -21.6108 -189.694 -5.42461 -189.694 -5.42461V437.252L805.589 439.118V31.7904C805.589 31.7904 747.144 264.943 651.528 264.943C532.009 264.943 504.22 132.052 444.279 132.052C384.339 132.052 398.734 192.882 304.585 216.389C219.765 237.566 209.261 83.0479 110.786 106.931Z" fill="url(#paint1_linear)"/>
<path opacity="0.2" d="M146.079 302.432C31.7563 245.177 8.52487 401.786 -88.3747 401.786C-136.258 401.786 -190 378.681 -190 378.681V439.375H791.975V322.084C791.975 322.084 693.547 249.289 591.451 249.289C484.951 249.289 473.105 155.568 342.018 148.069C243.896 142.456 207.85 333.368 146.079 302.432Z" fill="url(#paint2_linear)"/>
</g>
<defs>
<linearGradient id="paint0_linear" x1="-181.469" y1="177.429" x2="509.663" y2="162.169" gradientUnits="userSpaceOnUse">
<stop stop-color="#2DA6A8"/>
<stop offset="1" stop-color="#3FE896"/>
</linearGradient>
<linearGradient id="paint1_linear" x1="298.93" y1="93.179" x2="298.93" y2="447.372" gradientUnits="userSpaceOnUse">
<stop stop-color="#197763"/>
<stop offset="1" stop-color="#25955F" stop-opacity="0"/>
</linearGradient>
<linearGradient id="paint2_linear" x1="334.849" y1="125.055" x2="334.849" y2="448.865" gradientUnits="userSpaceOnUse">
<stop stop-color="#198D75"/>
<stop offset="1" stop-color="#1F7C69" stop-opacity="0"/>
</linearGradient>
</defs>
</svg>
