<svg width="200" height="53" viewBox="0 0 200 53" fill="none" xmlns="http://www.w3.org/2000/svg">
<path d="M73.4787 26.2889L71.1825 21.7455L70.9828 21.8464L71.1825 28.813V35.6787H66.4902V13.5673H71.6817L77.1726 23.159L80.0678 28.6111L80.1677 28.5102L79.968 21.7455V13.5673H84.7601V35.6787H79.1693L73.4787 26.2889Z" fill="white"/>
<path d="M103.729 27.0966C103.729 28.4091 103.529 29.6207 103.13 30.7313C102.731 31.8419 102.132 32.7506 101.333 33.5584C100.534 34.3661 99.6357 34.9719 98.5375 35.3757C97.4393 35.7796 96.2413 35.9815 94.8436 35.9815C93.4459 35.9815 92.2479 35.7796 91.1497 35.3757C90.0515 34.9719 89.153 34.2651 88.3543 33.5584C87.5556 32.7506 86.9566 31.8419 86.5572 30.7313C86.0581 29.6207 85.8584 28.4091 85.8584 27.0966C85.8584 25.784 86.0581 24.5724 86.4574 23.4618C86.8568 22.3512 87.4558 21.4425 88.2544 20.6348C89.0531 19.8271 89.9516 19.2213 91.0498 18.8174C92.148 18.4135 93.346 18.2116 94.7437 18.2116C96.1414 18.2116 97.4393 18.4135 98.4376 18.8174C99.5358 19.2213 100.434 19.928 101.233 20.6348C102.032 21.4425 102.631 22.3512 103.03 23.4618C103.629 24.5724 103.729 27.0966 103.729 27.0966ZM91.8485 31.1352C92.4475 31.8419 93.4459 32.2458 94.7437 32.2458C96.0416 32.2458 97.04 31.8419 97.639 31.1352C98.238 30.3275 98.6373 29.0149 98.6373 27.0966C98.6373 25.1782 98.3378 23.8657 97.639 23.058C97.04 22.3512 96.0416 21.9473 94.7437 21.9473C93.4459 21.9473 92.4475 22.3512 91.8485 23.058C91.2495 23.8657 90.8502 25.1782 90.8502 27.0966C90.8502 29.0149 91.2495 30.3275 91.8485 31.1352Z" fill="white"/>
<path d="M103.229 21.9474L103.329 19.0194L106.025 18.5146L107.522 13.9711L111.017 14.375V18.5146H116.707L117.007 21.8464L111.017 22.3513V29.8227C111.017 30.7314 111.216 31.3372 111.616 31.6401C112.015 31.943 112.714 32.1449 113.513 32.1449C113.912 32.1449 114.411 32.1449 114.81 32.0439C115.21 31.943 115.809 31.842 116.508 31.6401L117.706 34.5681C117.107 35.0729 116.308 35.4768 115.31 35.7797C114.311 36.0826 113.413 36.1835 112.414 36.1835C110.318 36.1835 108.621 35.6787 107.522 34.669C106.424 33.6594 105.825 32.0439 105.825 29.7217V22.5532L103.229 21.9474Z" fill="white"/>
<path d="M119.204 11.7498C119.703 11.245 120.502 11.0431 121.4 11.0431C122.398 11.0431 123.097 11.245 123.596 11.7498C124.096 12.2547 124.295 12.8605 124.295 13.6682C124.295 14.4759 124.096 15.0817 123.596 15.5865C123.097 16.0914 122.299 16.2933 121.4 16.2933C120.402 16.2933 119.703 16.0914 119.204 15.5865C118.705 15.0817 118.505 14.4759 118.505 13.6682C118.505 12.9614 118.705 12.2547 119.204 11.7498Z" fill="white"/>
<path d="M118.903 18.5145H123.995V35.6787H120.601L118.903 34.2651V18.5145Z" fill="white"/>
<path d="M142.265 18.2117C141.167 17.8078 140.169 17.5049 139.071 17.303C138.072 17.101 137.074 17.0001 135.976 17.0001C135.277 17.0001 134.578 17.0001 134.079 17.101C133.58 17.202 133.18 17.4039 132.881 17.6059C132.481 17.9088 132.282 18.4136 132.282 19.0194C132.282 19.6252 132.481 20.029 132.781 20.3319C133.18 20.7358 133.979 21.0387 134.977 21.2406L138.272 21.9474C139.27 22.1493 140.269 22.4522 141.167 22.7551C142.066 23.058 142.864 23.6638 143.463 24.2696C143.962 24.7744 144.362 25.2792 144.661 25.986C144.961 26.6928 145.16 27.5005 145.16 28.5101C145.16 29.9237 144.961 31.0343 144.462 31.943C143.962 32.8517 143.264 33.5584 142.465 34.0632C141.566 34.669 140.468 35.1739 139.27 35.4768C138.072 35.7797 136.774 35.8806 135.377 35.8806C134.378 35.8806 133.58 35.8806 132.781 35.7797C132.082 35.6787 131.383 35.5777 130.684 35.4768C130.085 35.2748 129.387 35.0729 128.887 34.871C128.288 34.669 127.689 34.3661 127.09 33.9623L128.787 30.2266C129.387 30.5295 130.085 30.7314 130.585 30.9333C131.084 31.1352 131.683 31.2362 132.182 31.3372C132.681 31.4381 133.18 31.5391 133.679 31.5391C134.179 31.5391 134.778 31.6401 135.277 31.6401C136.175 31.6401 136.974 31.5391 137.473 31.4381C138.072 31.3372 138.571 31.1352 138.871 30.8323C139.37 30.4285 139.67 29.8227 139.67 29.1159C139.67 28.7121 139.57 28.4092 139.47 28.1063C139.37 27.9044 139.17 27.7024 138.971 27.5005C138.372 27.0966 137.473 26.6928 136.275 26.4908L132.581 25.7841C131.583 25.5821 130.784 25.2792 129.986 24.8754C129.287 24.4715 128.588 23.9667 128.089 23.2599C127.689 22.8561 127.49 22.2503 127.19 21.7455C126.99 21.1397 126.891 20.5339 126.891 19.8271C126.891 18.7165 127.09 17.7068 127.49 16.8991C127.889 16.0914 128.388 15.4856 129.087 14.9808C129.886 14.375 130.884 13.8701 131.982 13.5673C133.18 13.2644 134.378 13.1634 135.776 13.1634C137.373 13.1634 138.771 13.2644 139.969 13.5673C141.167 13.8701 142.365 14.274 143.463 14.8798L142.265 18.2117Z" fill="white"/>
<path d="M145.66 27.0966C145.66 24.1686 146.359 21.9473 147.856 20.4329C149.354 18.9184 151.55 18.1107 154.545 18.1107C155.843 18.1107 156.941 18.3126 157.939 18.6155C158.938 18.9184 159.836 19.5242 160.535 20.2309C161.234 20.9377 161.833 21.8464 162.232 22.957C162.632 24.0676 162.831 25.2792 162.831 26.7937C162.831 27.0966 162.831 27.5004 162.732 27.9043C162.632 28.3082 162.632 28.712 162.532 29.1159H153.447L150.751 28.914C150.851 30.2265 151.251 31.0342 151.949 31.5391C152.648 32.0439 153.647 32.2458 155.044 32.2458C155.543 32.2458 156.043 32.2458 156.442 32.2458C156.841 32.2458 157.241 32.1449 157.64 32.1449C158.039 32.1449 158.439 32.0439 158.938 31.9429C159.337 31.842 159.836 31.741 160.435 31.64L161.434 34.77C160.535 35.1738 159.537 35.5777 158.339 35.7796C157.141 35.9815 155.943 36.0825 154.645 36.0825C153.147 36.0825 151.75 35.8806 150.652 35.4767C149.453 35.0729 148.555 34.4671 147.756 33.6593C147.057 32.8516 146.458 31.9429 146.059 30.8323C145.76 29.7217 145.56 28.4091 145.66 27.0966ZM157.241 22.7551C156.741 22.1493 155.843 21.8464 154.645 21.8464C153.447 21.8464 152.449 22.1493 151.85 22.6541C151.251 23.1589 150.951 24.1686 150.751 25.5821H158.039C157.939 24.3705 157.64 23.3609 157.241 22.7551Z" fill="white"/>
<path d="M168.023 18.4136L169.32 19.6251L173.114 18.1107H173.314C176.109 18.1107 178.106 18.7164 179.404 20.029C180.702 21.3416 181.301 23.2599 181.301 25.885V35.6786H177.707L176.109 34.2651V25.6831C176.109 24.2695 175.91 23.3609 175.41 22.856C174.911 22.3512 174.013 22.0483 172.815 22.0483C172.116 22.0483 171.517 22.1493 171.018 22.2502C170.518 22.4522 170.019 22.6541 169.62 23.058V35.6786H164.528V19.2213L168.023 18.4136Z" fill="white"/>
<path d="M199.771 35.3757L196.277 35.9815L195.078 34.669L190.985 36.1835H190.686C189.188 36.1835 187.89 35.9815 186.792 35.5777C185.694 35.1738 184.895 34.4671 184.196 33.7603C183.597 32.9526 183.098 32.0439 182.799 30.9333C182.499 29.8226 182.399 28.6111 182.399 27.2985C182.399 24.4715 183.098 22.2502 184.496 20.6348C185.894 19.0193 188.09 18.3126 190.885 18.3126C191.584 18.3126 192.183 18.4135 192.782 18.5145C193.381 18.6155 193.98 18.8174 194.579 19.0193V13.0624H199.671L199.771 35.3757ZM194.679 22.5531C194.18 22.3512 193.581 22.2502 193.082 22.1493C192.583 22.0483 191.984 22.0483 191.385 22.0483C190.786 22.0483 190.187 22.1493 189.687 22.2502C189.188 22.4522 188.789 22.6541 188.489 23.058C188.19 23.4618 187.89 23.9667 187.791 24.5724C187.591 25.1782 187.591 26.0869 187.591 27.0966C187.591 27.9043 187.591 28.6111 187.691 29.2169C187.791 29.8226 187.99 30.3275 188.29 30.8323C188.589 31.2362 188.989 31.64 189.488 31.842C189.987 32.0439 190.686 32.1449 191.484 32.1449C192.782 32.1449 193.781 31.9429 194.779 31.4381L194.679 22.5531Z" fill="white"/>
<path d="M50.3168 38.6067L37.8373 51.3284L26.8555 36.1835L50.3168 38.6067Z" fill="url(#paint0_linear)"/>
<path d="M45.625 43.453L45.9245 49.6119L27.0557 36.1835L45.625 43.453Z" fill="url(#paint1_linear)"/>
<path d="M28.7525 51.5303L11.6807 46.7849L19.2681 29.7217L28.7525 51.5303Z" fill="url(#paint2_linear)"/>
<path d="M22.2629 49.7129L16.9717 52.8428L19.2679 29.7217L22.2629 49.7129Z" fill="url(#paint3_linear)"/>
<path d="M6.98823 38.9096L2.69531 21.4425L21.1648 19.7261L6.98823 38.9096Z" fill="url(#paint4_linear)"/>
<path d="M5.39088 32.2459L0.0996094 29.2169L21.1649 19.7261L5.39088 32.2459Z" fill="url(#paint5_linear)"/>
<path d="M7.1875 13.5673L20.0663 1.1485L30.6488 16.5962L7.1875 13.5673Z" fill="url(#paint6_linear)"/>
<path d="M12.0801 8.82186V2.66296L30.6494 16.5962L12.0801 8.82186Z" fill="url(#paint7_linear)"/>
<path d="M29.1514 1.24945L46.1234 6.49966L38.0367 23.3609L29.1514 1.24945Z" fill="url(#paint8_linear)"/>
<path d="M35.541 3.16781L40.9321 0.239807L38.0369 23.3609L35.541 3.16781Z" fill="url(#paint9_linear)"/>
<path d="M50.5166 14.476L54.3103 31.943L35.8408 33.1546L50.5166 14.476Z" fill="url(#paint10_linear)"/>
<path d="M52.0141 21.0387L57.2056 24.2696L35.8408 33.1546L52.0141 21.0387Z" fill="url(#paint11_linear)"/>
<defs>
<linearGradient id="paint0_linear" x1="38.5861" y1="36.1835" x2="38.5861" y2="51.3284" gradientUnits="userSpaceOnUse">
<stop stop-color="white" stop-opacity="0.8"/>
<stop offset="1" stop-color="white" stop-opacity="0.4"/>
</linearGradient>
<linearGradient id="paint1_linear" x1="44.5155" y1="43.322" x2="4.38282" y2="40.7808" gradientUnits="userSpaceOnUse">
<stop stop-color="white"/>
<stop offset="1" stop-color="white"/>
</linearGradient>
<linearGradient id="paint2_linear" x1="20.2166" y1="29.7217" x2="20.2166" y2="51.5303" gradientUnits="userSpaceOnUse">
<stop stop-color="white" stop-opacity="0.8"/>
<stop offset="1" stop-color="white" stop-opacity="0.4"/>
</linearGradient>
<linearGradient id="paint3_linear" x1="21.8678" y1="42.0128" x2="10.5698" y2="41.8963" gradientUnits="userSpaceOnUse">
<stop stop-color="white"/>
<stop offset="1" stop-color="white"/>
</linearGradient>
<linearGradient id="paint4_linear" x1="11.9301" y1="19.7261" x2="11.9301" y2="38.9096" gradientUnits="userSpaceOnUse">
<stop stop-color="white" stop-opacity="0.8"/>
<stop offset="1" stop-color="white" stop-opacity="0.4"/>
</linearGradient>
<linearGradient id="paint5_linear" x1="19.5918" y1="26.3815" x2="-25.1349" y2="22.9903" gradientUnits="userSpaceOnUse">
<stop stop-color="white"/>
<stop offset="1" stop-color="white"/>
</linearGradient>
<linearGradient id="paint6_linear" x1="18.9181" y1="1.1485" x2="18.9181" y2="16.5962" gradientUnits="userSpaceOnUse">
<stop stop-color="white" stop-opacity="0.8"/>
<stop offset="1" stop-color="white" stop-opacity="0.4"/>
</linearGradient>
<linearGradient id="paint7_linear" x1="29.2628" y1="10.0698" x2="-10.2487" y2="7.69687" gradientUnits="userSpaceOnUse">
<stop stop-color="white"/>
<stop offset="1" stop-color="white"/>
</linearGradient>
<linearGradient id="paint8_linear" x1="37.6374" y1="1.24945" x2="37.6374" y2="23.3609" gradientUnits="userSpaceOnUse">
<stop stop-color="white" stop-opacity="0.8"/>
<stop offset="1" stop-color="white" stop-opacity="0.4"/>
</linearGradient>
<linearGradient id="paint9_linear" x1="40.5295" y1="12.5308" x2="29.0184" y2="12.4099" gradientUnits="userSpaceOnUse">
<stop stop-color="white"/>
<stop offset="1" stop-color="white"/>
</linearGradient>
<linearGradient id="paint10_linear" x1="45.0756" y1="14.476" x2="45.0756" y2="33.1546" gradientUnits="userSpaceOnUse">
<stop stop-color="white" stop-opacity="0.8"/>
<stop offset="1" stop-color="white" stop-opacity="0.4"/>
</linearGradient>
<linearGradient id="paint11_linear" x1="55.6102" y1="27.4794" x2="10.273" y2="23.8768" gradientUnits="userSpaceOnUse">
<stop stop-color="white"/>
<stop offset="1" stop-color="white"/>
</linearGradient>
</defs>
</svg>
