<svg width="152" height="40" viewBox="0 0 152 40" fill="none" xmlns="http://www.w3.org/2000/svg">
<path d="M55.6201 19.8996L53.8819 16.4604L53.7308 16.5368L53.8819 21.8103V27.0073H50.3301V10.2698H54.2598L58.4162 17.5303L60.6078 21.6574L60.6834 21.581L60.5322 16.4604V10.2698H64.1597V27.0073H59.9277L55.6201 19.8996Z" fill="#222222"/>
<path d="M78.5185 20.511C78.5185 21.5045 78.3674 22.4217 78.0651 23.2624C77.7628 24.1031 77.3094 24.7909 76.7048 25.4023C76.1002 26.0137 75.4201 26.4723 74.5888 26.778C73.7575 27.0837 72.8506 27.2366 71.7926 27.2366C70.7346 27.2366 69.8278 27.0837 68.9965 26.778C68.1652 26.4723 67.4851 25.9373 66.8805 25.4023C66.2759 24.7909 65.8225 24.1031 65.5202 23.2624C65.1424 22.4217 64.9912 21.5045 64.9912 20.511C64.9912 19.5174 65.1424 18.6003 65.4446 17.7596C65.7469 16.9189 66.2004 16.2311 66.8049 15.6196C67.4095 15.0082 68.0896 14.5497 68.9209 14.244C69.7522 13.9383 70.6591 13.7854 71.7171 13.7854C72.7751 13.7854 73.7575 13.9383 74.5132 14.244C75.3445 14.5497 76.0246 15.0847 76.6292 15.6196C77.2338 16.2311 77.6872 16.9189 77.9895 17.7596C78.4429 18.6003 78.5185 20.511 78.5185 20.511ZM69.5255 23.5681C69.9789 24.1031 70.7346 24.4088 71.7171 24.4088C72.6995 24.4088 73.4552 24.1031 73.9086 23.5681C74.3621 22.9566 74.6644 21.9631 74.6644 20.511C74.6644 19.0589 74.4376 18.0653 73.9086 17.4539C73.4552 16.9189 72.6995 16.6132 71.7171 16.6132C70.7346 16.6132 69.9789 16.9189 69.5255 17.4539C69.0721 18.0653 68.7698 19.0589 68.7698 20.511C68.7698 21.9631 69.0721 22.9566 69.5255 23.5681Z" fill="#222222"/>
<path d="M78.1396 16.6133L78.2152 14.3969L80.2556 14.0148L81.3892 10.5756L84.0342 10.8813V14.0148H88.3418L88.5685 16.5369L84.0342 16.919V22.5746C84.0342 23.2624 84.1854 23.721 84.4876 23.9503C84.7899 24.1796 85.3189 24.3324 85.9235 24.3324C86.2258 24.3324 86.6036 24.3324 86.9059 24.256C87.2082 24.1796 87.6616 24.1031 88.1906 23.9503L89.0975 26.1667C88.6441 26.5488 88.0395 26.8545 87.2838 27.0838C86.5281 27.3131 85.8479 27.3895 85.0922 27.3895C83.5052 27.3895 82.2205 27.0074 81.3892 26.2431C80.5579 25.4788 80.1045 24.256 80.1045 22.4982V17.0719L78.1396 16.6133Z" fill="#222222"/>
<path d="M90.2321 8.89412C90.61 8.51198 91.2146 8.35913 91.8947 8.35913C92.6504 8.35913 93.1794 8.51198 93.5573 8.89412C93.9351 9.27626 94.0863 9.73482 94.0863 10.3462C94.0863 10.9577 93.9351 11.4162 93.5573 11.7983C93.1794 12.1805 92.5749 12.3333 91.8947 12.3333C91.139 12.3333 90.61 12.1805 90.2321 11.7983C89.8543 11.4162 89.7031 10.9577 89.7031 10.3462C89.7031 9.81125 89.8543 9.27626 90.2321 8.89412Z" fill="#28B2F7"/>
<path d="M90.0049 14.0148H93.859V27.0074H91.2896L90.0049 25.9374V14.0148Z" fill="#222222"/>
<path d="M107.689 13.7855C106.858 13.4798 106.102 13.2505 105.271 13.0976C104.515 12.9448 103.759 12.8683 102.928 12.8683C102.399 12.8683 101.87 12.8683 101.492 12.9448C101.114 13.0212 100.812 13.174 100.585 13.3269C100.283 13.5562 100.132 13.9383 100.132 14.3969C100.132 14.8554 100.283 15.1611 100.51 15.3904C100.812 15.6961 101.416 15.9254 102.172 16.0783L104.666 16.6133C105.422 16.7661 106.177 16.9954 106.858 17.2247C107.538 17.454 108.142 17.9125 108.596 18.3711C108.974 18.7532 109.276 19.1354 109.503 19.6703C109.729 20.2053 109.88 20.8168 109.88 21.581C109.88 22.651 109.729 23.4917 109.351 24.1795C108.974 24.8674 108.445 25.4024 107.84 25.7845C107.16 26.2431 106.329 26.6252 105.422 26.8545C104.515 27.0838 103.532 27.1602 102.474 27.1602C101.719 27.1602 101.114 27.1602 100.51 27.0838C99.9805 27.0073 99.4515 26.9309 98.9225 26.8545C98.4691 26.7016 97.9401 26.5488 97.5622 26.3959C97.1088 26.2431 96.6554 26.0138 96.2019 25.7081L97.4866 22.8803C97.9401 23.1096 98.4691 23.2624 98.8469 23.4153C99.2248 23.5681 99.6782 23.6446 100.056 23.721C100.434 23.7974 100.812 23.8738 101.19 23.8738C101.568 23.8738 102.021 23.9503 102.399 23.9503C103.079 23.9503 103.684 23.8738 104.061 23.7974C104.515 23.721 104.893 23.5681 105.119 23.3388C105.497 23.0331 105.724 22.5746 105.724 22.0396C105.724 21.7339 105.648 21.5046 105.573 21.2753C105.497 21.1225 105.346 20.9696 105.195 20.8168C104.742 20.511 104.061 20.2053 103.155 20.0525L100.358 19.5175C99.6026 19.3646 98.9981 19.1354 98.3935 18.8296C97.8645 18.5239 97.3355 18.1418 96.9576 17.6068C96.6554 17.3011 96.5042 16.8425 96.2775 16.4604C96.1264 16.0018 96.0508 15.5433 96.0508 15.0083C96.0508 14.1676 96.2019 13.4033 96.5042 12.7919C96.8065 12.1805 97.1844 11.7219 97.7134 11.3398C98.3179 10.8812 99.0736 10.4991 99.9049 10.2698C100.812 10.0405 101.719 9.96411 102.777 9.96411C103.986 9.96411 105.044 10.0405 105.951 10.2698C106.858 10.4991 107.764 10.8048 108.596 11.2634L107.689 13.7855Z" fill="#222222"/>
<path d="M110.258 20.511C110.258 18.2946 110.787 16.6132 111.921 15.4668C113.054 14.3204 114.717 13.709 116.984 13.709C117.966 13.709 118.798 13.8618 119.553 14.0911C120.309 14.3204 120.989 14.779 121.518 15.314C122.047 15.8489 122.501 16.5368 122.803 17.3775C123.105 18.2182 123.256 19.1353 123.256 20.2817C123.256 20.511 123.256 20.8167 123.181 21.1224C123.105 21.4281 123.105 21.7338 123.03 22.0395H116.153L114.112 21.8867C114.188 22.8802 114.49 23.4916 115.019 23.8738C115.548 24.2559 116.304 24.4088 117.362 24.4088C117.74 24.4088 118.117 24.4088 118.42 24.4088C118.722 24.4088 119.024 24.3323 119.327 24.3323C119.629 24.3323 119.931 24.2559 120.309 24.1795C120.611 24.1031 120.989 24.0266 121.443 23.9502L122.198 26.3194C121.518 26.6252 120.762 26.9309 119.856 27.0837C118.949 27.2366 118.042 27.313 117.059 27.313C115.926 27.313 114.868 27.1601 114.037 26.8544C113.13 26.5487 112.45 26.0902 111.845 25.4787C111.316 24.8673 110.863 24.1795 110.56 23.3388C110.334 22.4981 110.182 21.5045 110.258 20.511ZM119.024 17.2246C118.646 16.7661 117.966 16.5368 117.059 16.5368C116.153 16.5368 115.397 16.7661 114.943 17.1482C114.49 17.5303 114.263 18.2946 114.112 19.3646H119.629C119.553 18.4475 119.327 17.6832 119.024 17.2246Z" fill="#222222"/>
<path d="M127.186 13.9383L128.168 14.8554L131.04 13.709H131.191C133.307 13.709 134.819 14.1675 135.801 15.1611C136.784 16.1546 137.237 17.6068 137.237 19.5939V27.0073H134.516L133.307 25.9373V19.441C133.307 18.371 133.156 17.6832 132.778 17.3011C132.4 16.9189 131.72 16.6896 130.813 16.6896C130.284 16.6896 129.831 16.7661 129.453 16.8425C129.075 16.9953 128.697 17.1482 128.395 17.4539V27.0073H124.541V14.5497L127.186 13.9383Z" fill="#222222"/>
<path d="M151.219 26.7779L148.574 27.2365L147.667 26.243L144.568 27.3894H144.342C143.208 27.3894 142.226 27.2365 141.394 26.9308C140.563 26.6251 139.959 26.0901 139.43 25.5551C138.976 24.9437 138.598 24.2559 138.372 23.4152C138.145 22.5745 138.069 21.6573 138.069 20.6638C138.069 18.5238 138.598 16.8424 139.656 15.6196C140.714 14.3968 142.377 13.8618 144.493 13.8618C145.022 13.8618 145.475 13.9382 145.929 14.0146C146.382 14.0911 146.836 14.2439 147.289 14.3968V9.88757H151.143L151.219 26.7779ZM147.365 17.0717C146.987 16.9189 146.533 16.8424 146.155 16.766C145.778 16.6896 145.324 16.6896 144.871 16.6896C144.417 16.6896 143.964 16.766 143.586 16.8424C143.208 16.9953 142.906 17.1481 142.679 17.4538C142.452 17.7596 142.226 18.1417 142.15 18.6003C141.999 19.0588 141.999 19.7467 141.999 20.5109C141.999 21.1223 141.999 21.6573 142.075 22.1159C142.15 22.5745 142.301 22.9566 142.528 23.3387C142.755 23.6444 143.057 23.9501 143.435 24.103C143.813 24.2559 144.342 24.3323 144.946 24.3323C145.929 24.3323 146.684 24.1794 147.44 23.7973L147.365 17.0717Z" fill="#222222"/>
<path d="M38.0874 29.2238L28.641 38.8536L20.3281 27.3895L38.0874 29.2238Z" fill="url(#paint0_linear)"/>
<path d="M34.5358 32.8923L34.7625 37.5543L20.4795 27.3895L34.5358 32.8923Z" fill="url(#paint1_linear)"/>
<path d="M21.7645 39.0065L8.8418 35.4145L14.5852 22.4983L21.7645 39.0065Z" fill="url(#paint2_linear)"/>
<path d="M16.852 37.6308L12.8467 40.0001L14.5848 22.4983L16.852 37.6308Z" fill="url(#paint3_linear)"/>
<path d="M5.28961 29.453L2.04004 16.2311L16.0208 14.9319L5.28961 29.453Z" fill="url(#paint4_linear)"/>
<path d="M4.08048 24.4088L0.0751953 22.116L16.0208 14.9319L4.08048 24.4088Z" fill="url(#paint5_linear)"/>
<path d="M5.44141 10.2699L15.1901 0.869385L23.2007 12.5627L5.44141 10.2699Z" fill="url(#paint6_linear)"/>
<path d="M9.14355 6.6778V2.01575L23.1999 12.5627L9.14355 6.6778Z" fill="url(#paint7_linear)"/>
<path d="M22.0664 0.945801L34.9136 4.92001L28.7923 17.6833L22.0664 0.945801Z" fill="url(#paint8_linear)"/>
<path d="M26.9023 2.3979L30.9832 0.181519L28.7916 17.6833L26.9023 2.3979Z" fill="url(#paint9_linear)"/>
<path d="M38.2389 10.9576L41.1106 24.1795L27.1299 25.0966L38.2389 10.9576Z" fill="url(#paint10_linear)"/>
<path d="M39.3725 15.9255L43.3022 18.3712L27.1299 25.0968L39.3725 15.9255Z" fill="url(#paint11_linear)"/>
<defs>
<linearGradient id="paint0_linear" x1="21.3935" y1="36.135" x2="26.3598" y2="24.5284" gradientUnits="userSpaceOnUse">
<stop stop-color="#179BFF"/>
<stop offset="1" stop-color="#74D7E8"/>
</linearGradient>
<linearGradient id="paint1_linear" x1="29.4531" y1="30.2986" x2="26.1827" y2="37.9405" gradientUnits="userSpaceOnUse">
<stop stop-color="#179BFF"/>
<stop offset="1" stop-color="#74D7E8"/>
</linearGradient>
<linearGradient id="paint2_linear" x1="7.6026" y1="27.6941" x2="20.9081" y2="30.1497" gradientUnits="userSpaceOnUse">
<stop stop-color="#179BFF"/>
<stop offset="1" stop-color="#74D7E8"/>
</linearGradient>
<linearGradient id="paint3_linear" x1="16.5529" y1="31.8021" x2="8.00068" y2="31.7139" gradientUnits="userSpaceOnUse">
<stop stop-color="#179BFF"/>
<stop offset="1" stop-color="#74D7E8"/>
</linearGradient>
<linearGradient id="paint4_linear" x1="8.07129" y1="11.4199" x2="11.3365" y2="24.77" gradientUnits="userSpaceOnUse">
<stop stop-color="#179BFF"/>
<stop offset="1" stop-color="#74D7E8"/>
</linearGradient>
<linearGradient id="paint5_linear" x1="8.94292" y1="21.3208" x2="7.94538" y2="12.7749" gradientUnits="userSpaceOnUse">
<stop stop-color="#179BFF"/>
<stop offset="1" stop-color="#74D7E8"/>
</linearGradient>
<linearGradient id="paint6_linear" x1="22.3499" y1="3.79846" x2="16.9699" y2="15.2623" gradientUnits="userSpaceOnUse">
<stop stop-color="#179BFF"/>
<stop offset="1" stop-color="#74D7E8"/>
</linearGradient>
<linearGradient id="paint7_linear" x1="14.2565" y1="9.44086" x2="18.0457" y2="1.88807" gradientUnits="userSpaceOnUse">
<stop stop-color="#179BFF"/>
<stop offset="1" stop-color="#74D7E8"/>
</linearGradient>
<linearGradient id="paint8_linear" x1="35.8841" y1="12.5928" x2="22.6282" y2="10.0127" gradientUnits="userSpaceOnUse">
<stop stop-color="#179BFF"/>
<stop offset="1" stop-color="#74D7E8"/>
</linearGradient>
<linearGradient id="paint9_linear" x1="27.0433" y1="8.24833" x2="35.5538" y2="8.35228" gradientUnits="userSpaceOnUse">
<stop stop-color="#179BFF"/>
<stop offset="1" stop-color="#74D7E8"/>
</linearGradient>
<linearGradient id="paint10_linear" x1="34.9919" y1="28.8672" x2="32.2445" y2="15.3978" gradientUnits="userSpaceOnUse">
<stop stop-color="#179BFF"/>
<stop offset="1" stop-color="#74D7E8"/>
</linearGradient>
<linearGradient id="paint11_linear" x1="34.3787" y1="18.9469" x2="35.2109" y2="27.5233" gradientUnits="userSpaceOnUse">
<stop stop-color="#179BFF"/>
<stop offset="1" stop-color="#74D7E8"/>
</linearGradient>
</defs>
</svg>
